<?xml version="1.0" encoding="utf-8"?>
<!-- Generator: Adobe Illustrator 15.1.0, SVG Export Plug-In . SVG Version: 6.00 Build 0)  -->
<!DOCTYPE svg PUBLIC "-//W3C//DTD SVG 1.1//EN" "http://www.w3.org/Graphics/SVG/1.1/DTD/svg11.dtd">
<svg version="1.1" id="Layer_1" xmlns="http://www.w3.org/2000/svg" xmlns:xlink="http://www.w3.org/1999/xlink" x="0px" y="0px"
	 width="841.89px" height="595.28px" viewBox="0 0 841.89 595.28" enable-background="new 0 0 841.89 595.28" xml:space="preserve">
<g>
	<path fill="none" stroke="#000000" stroke-linecap="round" stroke-linejoin="round" stroke-miterlimit="10" d="M530.421,119.202
		c0,0,2.25,46.552-44.037,74.666c-31.622,19.206-83.625,16.397-107.985-13.352s-38.65-66.055-1.874-116.652
		C413.3,13.266,484.571,35.41,504.654,58.24C515.664,70.756,530.421,86.818,530.421,119.202z"/>
	<path fill="none" stroke="#000000" stroke-linecap="round" stroke-linejoin="round" stroke-miterlimit="10" d="M416.58,72.293
		l5.856,31.623c0,0,22.956,2.812,23.424,5.388c6.324-2.812,25.532-18.506,25.532-18.506S456.87,73.698,416.58,72.293z"/>
	<polygon fill="none" stroke="#000000" stroke-linecap="round" stroke-linejoin="round" stroke-miterlimit="10" points="
		437.896,41.608 443.986,54.023 462.726,61.987 479.356,54.256 464.834,41.608 	"/>
	<path fill="none" stroke="#000000" stroke-linecap="round" stroke-linejoin="round" stroke-miterlimit="10" d="M443.986,54.023
		c0,0-23.658,6.09-27.406,18.27"/>
	<path fill="none" stroke="#000000" stroke-linecap="round" stroke-linejoin="round" stroke-miterlimit="10" d="M447.031,109.304
		l1.172,28.811l26,17.334l25.768-19.677V104.15c0,0-21.785-14.524-27.407-13.353c0,0,3.524-21.257-9.838-27.874"/>
	<path fill="none" stroke="#000000" stroke-linecap="round" stroke-linejoin="round" stroke-miterlimit="10" d="M472.766,89.155
		c0,0,20.484-22.072,39.655-21.81"/>
	<path fill="none" stroke="#000000" stroke-linecap="round" stroke-linejoin="round" stroke-miterlimit="10" d="M499.971,104.15
		c0,0,23.424-8.077,24.804-16.153"/>
	<polyline fill="none" stroke="#000000" stroke-linecap="round" stroke-linejoin="round" stroke-miterlimit="10" points="
		499.971,134.602 512.371,140.926 520.583,119.616 530.402,117.491 	"/>
	
		<line fill="none" stroke="#000000" stroke-linecap="round" stroke-linejoin="round" stroke-miterlimit="10" x1="510.979" y1="168.801" x2="512.371" y2="140.926"/>
	<path fill="none" stroke="#000000" stroke-linecap="round" stroke-linejoin="round" stroke-miterlimit="10" d="M511.676,170.206
		c0,0-28.808-5.621-37.473-14.757c-0.937,3.981-2.811,27.406-2.811,27.406s10.975,10.779,9.29,14.128"/>
	<path fill="none" stroke="#000000" stroke-linecap="round" stroke-linejoin="round" stroke-miterlimit="10" d="M474.203,155.449
		c0,0-27.874,20.144-57.623,18.036c1.64-7.496,3.045-18.037,6.091-23.424c9.368-2.577,18.738-4.451,25.532-11.947"/>
	<path fill="none" stroke="#000000" stroke-linecap="round" stroke-linejoin="round" stroke-miterlimit="10" d="M422.671,150.062
		c0,0-15.929-22.722-15.929-25.298c2.576-4.45,15.694-20.848,15.694-20.848"/>
	<path fill="none" stroke="#000000" stroke-linecap="round" stroke-linejoin="round" stroke-miterlimit="10" d="M380.976,126.988
		c0,0,11.712,31.974,35.604,46.497c-9.135,0.703-26,2.731-26,2.731l-17.803-24.614L380.976,126.988z"/>
	<path fill="none" stroke="#000000" stroke-linecap="round" stroke-linejoin="round" stroke-miterlimit="10" d="M387.038,189.086
		c0,0,1.902-9.671,3.542-12.87"/>
	<path fill="none" stroke="#000000" stroke-linecap="round" stroke-linejoin="round" stroke-miterlimit="10" d="M360.235,151.603
		c0,0,9.731-0.567,12.542,0"/>
	<polyline fill="none" stroke="#000000" stroke-linecap="round" stroke-linejoin="round" stroke-miterlimit="10" points="
		358.944,96.073 372.777,96.073 380.976,126.988 	"/>
	<path fill="none" stroke="#000000" stroke-linecap="round" stroke-linejoin="round" stroke-miterlimit="10" d="M377.222,62.924
		l11.587,3.513V78.25c0,0-15.095,13.729-16.032,17.824"/>
	<path fill="none" stroke="#000000" stroke-linecap="round" stroke-linejoin="round" stroke-miterlimit="10" d="M409.599,38.292
		v16.901c0,0-20.79,8.667-20.79,11.244"/>
	<polyline fill="none" stroke="#000000" stroke-linecap="round" stroke-linejoin="round" stroke-miterlimit="10" points="
		424.274,34.362 437.896,41.608 409.599,55.193 415.643,72.293 388.809,76.744 	"/>
	
		<line fill="none" stroke="#000000" stroke-linecap="round" stroke-linejoin="round" stroke-miterlimit="10" x1="466.238" y1="41.608" x2="479.571" y2="41.608"/>
	
		<line fill="none" stroke="#000000" stroke-linecap="round" stroke-linejoin="round" stroke-miterlimit="10" x1="408.05" y1="79.499" x2="381.913" y2="115.159"/>
	
		<line fill="none" stroke="#000000" stroke-linecap="round" stroke-linejoin="round" stroke-miterlimit="10" x1="400.184" y1="79.499" x2="380.976" y2="106.024"/>
	<path fill="none" stroke="#000000" stroke-linecap="round" stroke-linejoin="round" stroke-miterlimit="10" d="M462.492,90.798
		c0,0-10.776-7.026-15.461-4.684c-4.684,2.342-10.541,13.352-10.541,13.352s8.902,2.108,8.902,3.045S460.853,93.608,462.492,90.798z
		"/>
	<path fill="none" stroke="#000000" stroke-linecap="round" stroke-linejoin="round" stroke-miterlimit="10" d="M450.545,74.519
		l15.693,6.91c0,0-5.854-18.037-10.54-18.271C452.654,67.14,450.545,74.519,450.545,74.519z"/>
	<polygon fill="none" stroke="#000000" stroke-linecap="round" stroke-linejoin="round" stroke-miterlimit="10" points="
		452.419,49.572 460.618,49.572 460.618,45.355 454.996,44.185 	"/>
	
		<line fill="none" stroke="#000000" stroke-linecap="round" stroke-linejoin="round" stroke-miterlimit="10" x1="479.356" y1="54.256" x2="503.015" y2="67.343"/>
	<polygon fill="none" stroke="#000000" stroke-linecap="round" stroke-linejoin="round" stroke-miterlimit="10" points="
		498.096,78.25 507.23,94.105 510.979,92.761 512.421,83.303 506.763,73.464 	"/>
	<path fill="none" stroke="#000000" stroke-linecap="round" stroke-linejoin="round" stroke-miterlimit="10" d="M474.203,90.811
		c0,0,7.497,50.854,0.001,64.773"/>
	<polygon fill="none" stroke="#000000" stroke-linecap="round" stroke-linejoin="round" stroke-miterlimit="10" points="
		453.357,111.531 452.419,133.195 469.051,140.926 469.987,102.573 	"/>
	<polygon fill="none" stroke="#000000" stroke-linecap="round" stroke-linejoin="round" stroke-miterlimit="10" points="
		522.457,94.105 510.979,102.573 508.402,111.531 517.305,119.616 520.817,112.583 528.078,111.531 	"/>
	<polyline fill="none" stroke="#000000" stroke-linecap="round" stroke-linejoin="round" stroke-miterlimit="10" points="
		416.58,173.485 439.302,191.756 439.302,204.874 	"/>
	
		<line fill="none" stroke="#000000" stroke-linecap="round" stroke-linejoin="round" stroke-miterlimit="10" x1="469.987" y1="182.651" x2="440.474" y2="191.288"/>
	<path fill="none" stroke="#000000" stroke-linecap="round" stroke-linejoin="round" stroke-miterlimit="10" d="M397.865,185.604
		c-0.01,0.745-16.616-77.691,10.185-83.03c13.671-2.521,20.179,18.396,19.891,26.635c-4.756-5.662-14.554-14.598-21.198,2.53
		C400.098,148.865,398.362,147.873,397.865,185.604z"/>
	<path fill="none" stroke="#000000" stroke-linecap="round" stroke-linejoin="round" stroke-miterlimit="10" d="M419.011,203.859
		c0,0-22.556,5.268-31.973,18.016c-9.416,12.748-11.692,13.658-12.148,17.756c-0.455,4.097,0.327,5.462-2.113,9.105
		c-2.439,3.643-12.173,12.747-12.542,15.023c-0.369,2.277-0.998,11.383,0,12.75c0.997,1.366-0.37,11.837-4.012,15.023
		c-3.642,3.187-11.381,11.836-13.203,14.568c-1.821,2.732-10.015,10.927-11.837,13.659c-1.821,2.731-12.749,16.391-14.569,18.212
		c-1.82,1.82-5.463,9.561-6.829,11.382c-1.366,1.819-3.188,9.562-6.83,10.471c-3.642,0.91-3.187-0.909-6.829,0
		c-3.642,0.91-13.203,0.264-13.203,0.264l-5.464-5.727"/>
	<path fill="none" stroke="#000000" stroke-linecap="round" stroke-linejoin="round" stroke-miterlimit="10" d="M457.752,204.874
		c0,0,38.698,13.36,44.161,59.343c1.366,7.284,1.683,11.836,3.346,11.836s5.253-0.454,6.417,1.822"/>
	<path fill="none" stroke="#000000" stroke-linecap="round" stroke-linejoin="round" stroke-miterlimit="10" d="M505.259,277.875
		l3.144,19.121c0,0-2.161,3.186,0,9.104c2.161,5.92,2.537,15.026,2.576,18.212c0.04,3.187-3.371,5.463-2.576,10.016
		s-3.071,18.211,0,19.577c3.071,1.365,1.323,4.615,4.019,6.404c2.695,1.791,2.834,12.718,2.766,15.449
		c-0.07,2.731-0.816,12.292,0.012,14.569c0.828,2.276,10.074,31.869,15.24,45.526c5.166,13.659,12.449,22.311,15.636,25.496
		c3.188,3.188,10.929,10.472,11.383,11.837"/>
	<path fill="none" stroke="#000000" stroke-linecap="round" stroke-linejoin="round" stroke-miterlimit="10" d="M421.161,204.296
		c0,0-23.051,12.116-23.051,16.213c0,4.097,0.91,11.837,0,13.203c-0.911,1.366-1.396,9.106-3.43,12.748s-6.065,13.203-5.87,14.568
		c0.194,1.366,1.525,18.439,1.771,21.058c0.246,2.618-2.239,8.991,2.19,14c4.429,5.008,7.616,17.299,7.616,19.577
		c0,2.276,1.366,15.48,1.366,15.48"/>
	<path fill="none" stroke="#000000" stroke-linecap="round" stroke-linejoin="round" stroke-miterlimit="10" d="M424.061,340.703"/>
	<path fill="none" stroke="#000000" stroke-linecap="round" stroke-linejoin="round" stroke-miterlimit="10" d="M415.365,204.874
		l-19.356,8.806l-5.43,7.285c0,0-2.319,10.926-3.542,12.748c-1.222,1.821-5.319,5.765-6.685,7.663
		c-1.366,1.898-6.503,11.915-7.577,13.281c-1.073,1.366-4.26,3.185-5.171,6.373c-0.911,3.188-1.366,19.123-3.188,23.676
		c-1.821,4.552-5.008,16.846-12.292,21.853c-7.285,5.008-23.263,23.75-26.861,24.586c-3.598,0.835-6.375,6.374-7.285,9.561
		c-0.911,3.186-5.009,20.093-10.017,19.606c-5.008-0.485-25.04,0.053-26.861,0.011"/>
	<path fill="none" stroke="#000000" stroke-linecap="round" stroke-linejoin="round" stroke-miterlimit="10" d="M410.359,207.151
		c0,0-17.01,10.097-17.589,10.875c-0.58,0.777,0.579,2.938,0,7.036c-0.579,4.098-11.051,29.594-13.782,34.146
		c-2.732,4.552-6.83,9.333-9.562,22.878c-2.731,13.545-13.658,34.032-26.406,42.682c-12.748,8.65-15.024,11.837-19.121,18.211
		c-4.098,6.375-4.553,16.846-9.561,20.943c-5.009,4.098-5.918,1.366-19.577,0s-17.301-7.285-17.301-7.285"/>
	<path fill="none" stroke="#000000" stroke-linecap="round" stroke-linejoin="round" stroke-miterlimit="10" d="M394.679,224.151
		c0,0,2.312,14.114-1.909,20.032c-4.222,5.918-11.051,15.48-11.961,18.667c-0.91,3.186-2.276,9.561-2.276,11.381
		s-2.405,14.569-5.755,17.301c-3.351,2.732-3.806,7.74-3.351,11.382c0.456,3.642-1.82,9.561-5.917,15.023
		c-4.098,5.464-4.098,10.471-3.188,19.577c0.91,9.106,8.194,28.684,2.276,38.016c-5.918,9.334-13.245,22.535-14.362,28.91
		c-1.117,6.374-1.159,29.137,0,32.779c1.159,3.644-3.394,3.642-11.133,13.659c-7.74,10.017-6.374,22.31-3.642,26.406
		c2.731,4.098,14.113,17.3,16.845,20.942c2.731,3.644,15.024,22.765,15.024,22.765l14.569,18.211"/>
	<path fill="none" stroke="#000000" stroke-linecap="round" stroke-linejoin="round" stroke-miterlimit="10" d="M394.679,216.688
		c0,0-0.903,22.28-7.641,31.137c-6.738,8.857-7.595,49.625-7.595,49.625s0.455,22.31,0,24.585s0.455,20.942,0,25.04
		c-0.455,4.097-4.097,21.398-2.731,24.13s3.186,10.473,2.731,13.659c-0.455,3.186-6.502,27.316-6.666,29.137
		c-0.163,1.82-2.438,35.057-6.082,44.617c-3.643,9.561-10.927,20.488-6.374,31.415"/>
	<path fill="none" stroke="#000000" stroke-linecap="round" stroke-linejoin="round" stroke-miterlimit="10" d="M386.728,263.76
		c0,0-0.456,24.587,0,29.594c0.456,5.007,2.784,19.122,2.075,28.682s-3.391,12.292-2.277,24.586
		c1.113,12.292,2.48,32.777,11.584,48.713c9.106,15.936,12.208,29.594,12.25,35.057"/>
	<path fill="none" stroke="#000000" stroke-linecap="round" stroke-linejoin="round" stroke-miterlimit="10" d="M392.469,250.976
		c0,0-12.975,5.09-8.473,31.624c4.501,26.534-0.998,41.248-2.732,48.543c-1.734,7.295-10.016,34.602-8.195,44.389
		c1.821,9.788,7.285,36.193,7.285,46.666c0,10.472-4.618,40.064-7.545,48.259c-2.927,8.195-5.642,39.154,9.83,62.374"/>
	<path fill="none" stroke="#000000" stroke-linecap="round" stroke-linejoin="round" stroke-miterlimit="10" d="M376.775,316.117
		c0,0,2.213,8.65-3.706,18.666c-5.919,10.017-9.278,14.392-14.2,18.578s-24.043,21.033-31.783,22.17
		c-7.74,1.138-21.399-3.416-28.228-6.147c-6.829-2.731-17.756-4.595-17.756-6.829"/>
	<path fill="none" stroke="#000000" stroke-linecap="round" stroke-linejoin="round" stroke-miterlimit="10" d="M370.548,304.735
		c0,0-4.044,18.611-7.239,24.585c-3.194,5.974-11.683,23.496-15.074,24.041c-3.392,0.544-12.498,10.336-22.514,12.725
		c-10.016,2.389-16.24,1.187-20.033,0"/>
	<path fill="none" stroke="#000000" stroke-linecap="round" stroke-linejoin="round" stroke-miterlimit="10" d="M363.963,297.752
		c0,0-5.963,20.639-15.729,29.291c-9.767,8.651-16.805,19.4-16.928,26.318c-0.123,6.918,0,12.725,0,12.725"/>
	<path fill="none" stroke="#000000" stroke-linecap="round" stroke-linejoin="round" stroke-miterlimit="10" d="M377.179,289.711
		c0,0-7.332,27.771-6.631,34.601c0.7,6.829-2.487,29.139-2.032,33.236s-5.464,25.915-4.553,34.355s0.738,35.756-5.094,41.675
		c-5.832,5.92-16.304,18.211-17.669,25.952c-1.366,7.739,1.779,18.666,7.036,28.228c5.257,9.561,12.542,32.324,12.997,41.886"/>
	<path fill="none" stroke="#000000" stroke-linecap="round" stroke-linejoin="round" stroke-miterlimit="10" d="M415.365,570.618
		c-1.776-1.366-22.212-26.406-26.563-44.618c-4.351-18.211-9.688-19.121-12.027-20.487c-13.266-13.204,2.27-28.839,0-35.057
		c-2.271-6.218,0-54.178,0-54.178s4.522-21.853,4.733-37.788s2.232-51.08,4.749-58.276"/>
	<path fill="none" stroke="#000000" stroke-linecap="round" stroke-linejoin="round" stroke-miterlimit="10" d="M392.469,297.752
		c0,0,22.031,22.694,7.917,68.333"/>
	<path fill="none" stroke="#000000" stroke-linecap="round" stroke-linejoin="round" stroke-miterlimit="10" d="M386.257,367.463
		c0,0-4.672,26.507,9.053,49.725c13.726,23.22,25.935,46.439,23.7,56"/>
	<path fill="none" stroke="#000000" stroke-linecap="round" stroke-linejoin="round" stroke-miterlimit="10" d="M383.541,398.066
		c0,0,17.653,35.512,18.843,43.707c1.19,8.194,3.097,30.958,2.599,31.414"/>
	<path fill="none" stroke="#000000" stroke-linecap="round" stroke-linejoin="round" stroke-miterlimit="10" d="M385.491,353.361
		c0,0,6.565,46.984,9.819,51.991c3.254,5.006,5.496,11.911,9.795,14.972"/>
	<path fill="none" stroke="#000000" stroke-linecap="round" stroke-linejoin="round" stroke-miterlimit="10" d="M394.302,391.903
		c0,0,7.337,8.948,8.082,17.774s0.744,8.826,0.744,8.826"/>
	<path fill="none" stroke="#000000" stroke-linecap="round" stroke-linejoin="round" stroke-miterlimit="10" d="M383.541,409.678
		c0,0,4.149,27.998,5.262,37.559c1.112,9.561-0.254,32.78-5.262,38.244"/>
	<path fill="none" stroke="#000000" stroke-linecap="round" stroke-linejoin="round" stroke-miterlimit="10" d="M388.802,418.504
		c0,0,8.718,47.856,6.508,60.604c-2.209,12.747,1.424,36.878,3.478,42.795c2.053,5.919,4.209,25.951,6.318,28.683"/>
	<path fill="none" stroke="#000000" stroke-linecap="round" stroke-linejoin="round" stroke-miterlimit="10" d="M359.03,386.842
		c0,0-2.351,12.296-3.717,18.362c-1.366,6.066-4.098,17.448-4.098,19.725"/>
	<path fill="none" stroke="#000000" stroke-linecap="round" stroke-linejoin="round" stroke-miterlimit="10" d="M363.309,353.361
		c0,0-4.808,23.31-12.093,28.317c-7.285,5.007-14.114,15.932-15.479,20.485s-3.396,14.924-4.43,16.34"/>
	<path fill="none" stroke="#000000" stroke-linecap="round" stroke-linejoin="round" stroke-miterlimit="10" d="M343.91,398.066
		c0,0-3.411,11.838-5.792,17.302c-2.381,5.463-8.054,8.194-6.811,10.926c1.243,2.732,7.998,10.017,6.214,14.113"/>
	<path fill="none" stroke="#000000" stroke-linecap="round" stroke-linejoin="round" stroke-miterlimit="10" d="M351.216,363.921
		c0,0-10.091,10.472-13.695,14.569c-3.605,4.098-7.81,9.562-6.39,15.936c1.419,6.372,0.857,12.748,0,15.252"/>
	<path fill="none" stroke="#000000" stroke-linecap="round" stroke-linejoin="round" stroke-miterlimit="10" d="M363.309,312.02
		c0,0-4.353,14.922-12.093,24.079c-7.739,9.157-13.098,21.903-13.098,21.903s0.105,21.854,0,25.951
		c-0.104,4.098,10.485,14.113,2.914,35.284c-7.572,21.17-9.725,28.342-9.725,28.342s-1.636,7.396,3.975,11.951"/>
	<path fill="none" stroke="#000000" stroke-linecap="round" stroke-linejoin="round" stroke-miterlimit="10" d="M343.91,496.863
		c0,0-3.165,16.846,7.306,26.861s12.292,15.936,12.748,20.488c0.455,4.552-1.821,20.485-12.748,26.405"/>
	<path fill="none" stroke="#000000" stroke-linecap="round" stroke-linejoin="round" stroke-miterlimit="10" d="M340.881,510.978
		c0,0,10.755,37.787,29.667,50.08c4.342,6.374,12.115,11.837,10.96,14.568"/>
	<path fill="none" stroke="#000000" stroke-linecap="round" stroke-linejoin="round" stroke-miterlimit="10" d="M385.491,536.017
		c0,0,5.655,20.033,3.673,30.961"/>
	<path fill="none" stroke="#000000" stroke-linecap="round" stroke-linejoin="round" stroke-miterlimit="10" d="M366.695,529.644
		c0,0,1.877,36.877-3.387,45.982"/>
	<path fill="none" stroke="#000000" stroke-linecap="round" stroke-linejoin="round" stroke-miterlimit="10" d="M385.491,490.034
		c0,0-3.058,6.83,0,12.748"/>
	<path fill="none" stroke="#000000" stroke-linecap="round" stroke-linejoin="round" stroke-miterlimit="10" d="M389.585,496.863
		c0,0,3.576,7.285,3.773,14.114c0.198,6.829-4.29,13.026,1.952,18.666"/>
	<path fill="none" stroke="#000000" stroke-linecap="round" stroke-linejoin="round" stroke-miterlimit="10" d="M364.017,447.579
		c0,0-1.592,10.131-5.148,15.594"/>
	<path fill="none" stroke="#000000" stroke-linecap="round" stroke-linejoin="round" stroke-miterlimit="10" d="M353.739,459.53
		c0,0-2.485,9.103,0,13.657"/>
	<path fill="none" stroke="#000000" stroke-linecap="round" stroke-linejoin="round" stroke-miterlimit="10" d="M359.03,409.678
		c0,0,2.981,13.885-3.907,20.714"/>
	<path fill="none" stroke="#000000" stroke-linecap="round" stroke-linejoin="round" stroke-miterlimit="10" d="M370.548,405.204
		c0,0-0.925,16.993-3.527,21.547"/>
	<path fill="none" stroke="#000000" stroke-linecap="round" stroke-linejoin="round" stroke-miterlimit="10" d="M329.141,381.679
		c0,0-5.242,6.83-3.876,14.114"/>
	<path fill="none" stroke="#000000" stroke-linecap="round" stroke-linejoin="round" stroke-miterlimit="10" d="M314.338,381.679
		c2.276-1.366,6.374-0.456,10.699-1.821"/>
	<path fill="none" stroke="#000000" stroke-linecap="round" stroke-linejoin="round" stroke-miterlimit="10" d="M377.179,555.595"/>
	<path fill="none" stroke="#000000" stroke-linecap="round" stroke-linejoin="round" stroke-miterlimit="10" d="M381.508,552.635
		c0,0,5.379,9.333,4.844,14.343"/>
	<path fill="none" stroke="#000000" stroke-linecap="round" stroke-linejoin="round" stroke-miterlimit="10" d="M455.044,204.874
		c0,0,32.756,10.629,31.845,43.864c1.821,23.219,5.918,22.308,7.284,23.219s0.187,10.017-2.639,13.203
		c-2.824,3.187-0.817,12.749,0,17.756c0.817,5.007-0.548,5.009-3.28,6.829c-2.731,1.821-5.464,1.365-5.918,15.024
		c-0.455,13.657-5.047,7.234-4.799,21.145c0.246,13.91-4.42,18.008-7.55,27.569c-3.132,9.561,4.575,9.105,1.405,15.252
		c-3.17,6.146-19.562,19.804-20.472,20.942c-0.909,1.139-5.528,6.3-5.528,6.3"/>
	<path fill="none" stroke="#000000" stroke-linecap="round" stroke-linejoin="round" stroke-miterlimit="10" d="M489.457,234.444
		c0,0,0.933,16.492,4.537,22.212"/>
	<path fill="none" stroke="#000000" stroke-linecap="round" stroke-linejoin="round" stroke-miterlimit="10" d="M493.994,259.209
		c0,0,7.675,16.844,5.977,18.666c-1.7,1.822-2.666,9.558-2.866,11.836c-0.2,2.278,4.109,22.307,2.866,30.503
		c-1.245,8.196-17.432,35.514-15.257,59.644s5.489,41.887,4.743,43.252"/>
	<path fill="none" stroke="#000000" stroke-linecap="round" stroke-linejoin="round" stroke-miterlimit="10" d="M505.259,331.143
		c0,0-15.996,18.212-11.265,46.894c4.731,28.683,16.089,50.078,18.377,52.355c2.29,2.278,4.058,51.447-0.695,74.212
		c-0.657,13.203,10.428,39.609,19.682,42.341c6.067,1.821,15.173,4.554,15.173,4.554s-28.683,5.461-39.153-21.854"/>
	<path fill="none" stroke="#000000" stroke-linecap="round" stroke-linejoin="round" stroke-miterlimit="10" d="M494.741,304.735
		c0,0,5.807,1.819,1.709,7.284c-4.099,5.464-7.74,15.479-9.106,19.123c-1.366,3.643,1.165,18.486-2.832,22.219
		c-3.997,3.731-8.093,24.221-7.638,30.14c0.454,5.917,1.365,15.023-2.731,19.576c-4.099,4.552-20.488,12.518-22.765,16.958
		c-2.277,4.44,0,18.099,0,18.099"/>
	<path fill="none" stroke="#000000" stroke-linecap="round" stroke-linejoin="round" stroke-miterlimit="10" d="M462.304,459.53"/>
	<path fill="none" stroke="#000000" stroke-linecap="round" stroke-linejoin="round" stroke-miterlimit="10" d="M476.874,412.183
		c0,0-34.146,41.432-34.146,65.561"/>
	<path fill="none" stroke="#000000" stroke-linecap="round" stroke-linejoin="round" stroke-miterlimit="10" d="M474.139,426.751
		c0,0-32.454,39.155-28.746,89.235"/>
	<path fill="none" stroke="#000000" stroke-linecap="round" stroke-linejoin="round" stroke-miterlimit="10" d="M494.741,412.183
		c0,0,5.546,34.597,3.172,54.176"/>
	<path fill="none" stroke="#000000" stroke-linecap="round" stroke-linejoin="round" stroke-miterlimit="10" d="M480.515,386.842
		c0,0-0.909,44.004-3.641,52.428c-2.731,8.425-3.193,22.539-2.735,28.913c0.458,6.372-3.639,46.437-6.826,55.542
		c-3.188,9.106,0.045,14.569,2.754,22.765c2.709,8.194,0,29.137,0,29.137"/>
	<path fill="none" stroke="#000000" stroke-linecap="round" stroke-linejoin="round" stroke-miterlimit="10" d="M500.216,289.711
		c0,0,8.773,46.895,0,68.294c-3.312,15.479,7.159,40.52,14.445,54.178c7.285,13.659,17.3,42.228,18.667,43.194
		c1.365,0.967,18.212,20.545,20.031,22.366c1.821,1.819,4.098,16.388,4.098,18.665"/>
	<path fill="none" stroke="#000000" stroke-linecap="round" stroke-linejoin="round" stroke-miterlimit="10" d="M528.521,451.335
		c0,0,7.538,35.512,6.172,40.521c-1.365,5.008-11.382,19.576-8.195,27.771"/>
	<path fill="none" stroke="#000000" stroke-linecap="round" stroke-linejoin="round" stroke-miterlimit="10" d="M517.393,430.392
		c0,0,5.717,35.969,0,55.09c-5.717,19.122-2.47,25.952,1.27,30.505c3.738,4.553,10.566,12.746,11.706,13.657"/>
	
		<line fill="none" stroke="#000000" stroke-linecap="round" stroke-linejoin="round" stroke-miterlimit="10" x1="484.714" y1="434.036" x2="484.714" y2="447.579"/>
	
		<line fill="none" stroke="#000000" stroke-linecap="round" stroke-linejoin="round" stroke-miterlimit="10" x1="484.714" y1="466.358" x2="484.714" y2="481.234"/>
	<path fill="none" stroke="#000000" stroke-linecap="round" stroke-linejoin="round" stroke-miterlimit="10" d="M480.515,451.335
		c0,0-0.16,22.005-3.641,26.408"/>
	<path fill="none" stroke="#000000" stroke-linecap="round" stroke-linejoin="round" stroke-miterlimit="10" d="M492.365,496.863
		c0,0-1.267-8.039-0.641-15.629"/>
	<path fill="none" stroke="#000000" stroke-linecap="round" stroke-linejoin="round" stroke-miterlimit="10" d="M505.259,466.358
		c0,0,3.8,21.855,0,26.408"/>
	<path fill="none" stroke="#000000" stroke-linecap="round" stroke-linejoin="round" stroke-miterlimit="10" d="M480.515,492.767
		c0,0,1.165,17.753,3.997,20.487"/>
	
		<line fill="none" stroke="#000000" stroke-linecap="round" stroke-linejoin="round" stroke-miterlimit="10" x1="494.741" y1="502.782" x2="494.741" y2="508.246"/>
	<path fill="none" stroke="#000000" stroke-linecap="round" stroke-linejoin="round" stroke-miterlimit="10" d="M489.457,499.141
		c-0.747,1.821-0.619,25.04,0,27.772"/>
	<path fill="none" stroke="#000000" stroke-linecap="round" stroke-linejoin="round" stroke-miterlimit="10" d="M493.119,526.913
		l4.794,16.39c0,0,2.425-22.31,2.303-32.325"/>
	<path fill="none" stroke="#000000" stroke-linecap="round" stroke-linejoin="round" stroke-miterlimit="10" d="M506.946,505.514
		c0,0,9.989,29.138,10.446,30.503c-4.553-4.097-10.446-15.25-10.446-15.25"/>
	<path fill="none" stroke="#000000" stroke-linecap="round" stroke-linejoin="round" stroke-miterlimit="10" d="M506.946,555.595
		c0,0,1.979,12.292-0.844,17.3"/>
	<path fill="none" stroke="#000000" stroke-linecap="round" stroke-linejoin="round" stroke-miterlimit="10" d="M522.33,555.595
		c0,0-5.677,17.755-8.039,20.031c-1.906-0.909-3.703-4.553-2.122-13.658"/>
	<path fill="none" stroke="#000000" stroke-linecap="round" stroke-linejoin="round" stroke-miterlimit="10" d="M525.876,559.806
		c0,0-2.444,10.812,0,15.82"/>
	<path fill="none" stroke="#000000" stroke-linecap="round" stroke-linejoin="round" stroke-miterlimit="10" d="M476.874,536.017
		c0,0,1.818,11.836,3.641,16.618c1.822,4.78,3.844,15.251,4.199,17.983"/>
	<path fill="none" stroke="#000000" stroke-linecap="round" stroke-linejoin="round" stroke-miterlimit="10" d="M476.874,492.767
		c0,0-0.006,25.951-2.735,34.146c-2.729,8.194-1.368,14.113,0,18.21c1.369,4.098,2.066,17.756,0.579,21.854"/>
	<path fill="none" stroke="#000000" stroke-linecap="round" stroke-linejoin="round" stroke-miterlimit="10" d="M511.562,331.143
		c0,0-0.829,6.374,2.729,13.203c3.557,6.829,7.967,21.397,5.533,27.089c-2.432,5.691-4.688,11.15-2.877,14.34"/>
	<path fill="none" stroke="#000000" stroke-linecap="round" stroke-linejoin="round" stroke-miterlimit="10" d="M470.066,441.543
		c0,0-9.128,41.662-14.591,54.865c-5.464,13.203-11.06,33.235-10.083,39.608c0.977,6.375,4.972,30.961,4.972,30.961"/>
	<path fill="none" stroke="#000000" stroke-linecap="round" stroke-linejoin="round" stroke-miterlimit="10" d="M470.066,455.377
		c0,0-5.941,43.308-7.763,52.869c-1.82,9.561-6.982,29.593-4.63,39.608c2.353,10.017,2.81,30.049-3.564,34.146"/>
	<path fill="none" stroke="#000000" stroke-linecap="round" stroke-linejoin="round" stroke-miterlimit="10" d="M482.514,395.793
		c0,0-1.045,7.281-9.262,13.885c-8.216,6.603-18.688,17.07-19.143,20.714"/>
	<path fill="none" stroke="#000000" stroke-linecap="round" stroke-linejoin="round" stroke-miterlimit="10" d="M506.103,360.31
		c0,0,7.2,18.493,5.375,26.532"/>
	<path fill="none" stroke="#000000" stroke-linecap="round" stroke-linejoin="round" stroke-miterlimit="10" d="M450.364,293.55
		c0,0,9.377-3.693,22.888,11.186"/>
	<path fill="none" stroke="#000000" stroke-linecap="round" stroke-linejoin="round" stroke-miterlimit="10" d="M396.955,295.919
		c0,0,16.846,7.785,30.985,0"/>
	<path fill="none" stroke="#000000" stroke-linecap="round" stroke-linejoin="round" stroke-miterlimit="10" d="M402.383,227.206
		c0,0,2.801-15.233,29.88-13.541C427.186,214.343,410.066,215.084,402.383,227.206z"/>
	<path fill="none" stroke="#000000" stroke-linecap="round" stroke-linejoin="round" stroke-miterlimit="10" d="M457.752,213.535
		c0,0,13.491,2.396,22.763,13.671c0,0-18.261-13.201-22.763-12.186C457.752,213.535,457.752,213.535,457.752,213.535z"/>
	<path fill="none" stroke="#000000" stroke-linecap="round" stroke-linejoin="round" stroke-miterlimit="10" d="M404.982,229.576
		c0,0,2.543,3.983,7.465,4.869c-1.51-1.146-5.375-4.192-2.088-7.238c3.287-3.046,4.731,0.338,4.347,1.693
		c1.986,1.692,9.614,3.285,9.354-2.927c0,0,2.889,1.064,3.347,0.279c0.458-0.785,0.522-4.123-1.964-4.385
		c-2.486-0.261-2.355-2.224-2.355-2.224S408.602,220.86,404.982,229.576z"/>
	<path fill="none" stroke="#000000" stroke-linecap="round" stroke-linejoin="round" stroke-miterlimit="10" d="M406.204,221.409
		c0,0,7.356-5.879,14.957-6.609"/>
	<path fill="none" stroke="#000000" stroke-linecap="round" stroke-linejoin="round" stroke-miterlimit="10" d="M410.166,232.345
		v0.646l-4.42-3.795l2.945,1.047l-2.16-2.29l2.094,0.589l-1.243-1.833l1.962,0.498l-0.981-1.479l1.996,0.786l-1.206-2.032
		l2.743,1.116l-0.719-1.767l2.505,1.963c0,0-1.757-3.6-1.346-3.207c0.411,0.393,3.981,6.675,3.981,6.675l-2.635-7.275l3.641,7.537
		l-2.547-7.537l3.729,7.733l-2.617-8.31c0,0,3.86,9.03,3.729,8.572c-0.13-0.458-2.783-9.097-2.783-9.097l3.765,8.574l-2.617-8.574
		l3.86,8.508l-2.832-9.021l3.813,8.367l-2.773-8.635l3.56,7.104l-2.45-7.104l3.206,5.974l-2.088-6.342l2.901,6.125l-0.457-3.796
		l1.111,3.665v-3.533l0.982,3.141"/>
	<path fill="none" stroke="#000000" stroke-linecap="round" stroke-linejoin="round" stroke-miterlimit="10" d="M448.998,219.053
		c0,0-13.611,6.937-14.724,8.899c-1.111,1.963-4.317,8.049-1.504,10.796c2.812,2.749,5.693,1.898,4.776-1.308
		c-1.635-1.047-2.748-1.047-2.29-3.926c0.457-2.879,7.788-9.685,10.863-10.47c3.073-0.785,4.711-0.523,5.758-1.636
		C452.925,220.296,452.204,218.137,448.998,219.053z"/>
	<polyline fill="none" stroke="#000000" stroke-linecap="round" stroke-linejoin="round" stroke-miterlimit="10" points="
		436.107,239.927 436.565,237.702 434.995,239.6 435.78,236.786 434.014,239.011 435.29,236.131 433.031,238.029 434.799,235.216 
		432.264,236.72 434.669,234.444 432.264,235.019 435.257,233.514 432.264,233.514 435.126,232.664 432.771,232.271 
		435.841,232.068 432.834,230.847 436.042,230.847 433.948,229.616 436.565,230.047 434.415,228.345 437.351,229.065 
		435.583,227.206 438.593,228.601 436.826,226.362 438.986,227.56 438.268,225.531 439.968,226.362 439.444,224.681 
		440.884,225.597 440.884,223.83 441.984,224.681 441.984,223.11 442.912,224.026 442.912,222.652 443.96,223.307 443.96,222.26 
		445.393,222.783 445.393,221.409 446.773,222.325 446.773,220.819 448.345,221.998 448.081,220.37 450.045,221.671 
		449.326,219.642 451.157,221.082 450.766,219.184 	"/>
	<path fill="none" stroke="#000000" stroke-linecap="round" stroke-linejoin="round" stroke-miterlimit="10" d="M445.662,228.411
		c0,0-0.458,7.59-5.692,6.347c-1.702-2.29-0.067-4.121,0.784-4.71C441.604,229.457,443.961,227.756,445.662,228.411z"/>
	<polyline fill="none" stroke="#000000" stroke-linecap="round" stroke-linejoin="round" stroke-miterlimit="10" points="
		439.838,233.449 441.984,233.907 439.838,232.009 443.043,233.383 440.558,230.962 443.895,232.434 441.711,230.047 
		444.483,231.29 442.912,229.195 444.746,229.616 	"/>
	<path fill="none" stroke="#000000" stroke-linecap="round" stroke-linejoin="round" stroke-miterlimit="10" d="M451.813,230.242
		c0,0,8.573,0.59,5.496,5.955c-2.354,2.028-4.406-0.967-4.983-1.302C451.748,234.561,451.684,230.831,451.813,230.242z"/>
	<polyline fill="none" stroke="#000000" stroke-linecap="round" stroke-linejoin="round" stroke-miterlimit="10" points="
		452.598,230.7 452.326,231.878 454.233,231.289 452.598,233.569 455.281,231.579 453.057,234.444 456.329,232.14 453.777,235.477 
		456.982,233.088 454.866,235.935 457.441,233.907 456.067,236.328 	"/>
	<path fill="none" stroke="#000000" stroke-linecap="round" stroke-linejoin="round" stroke-miterlimit="10" d="M481.914,242.872
		c0,0,2.943-3.6,0-7.591c-2.943-3.992-9.882-11.124-13.545-11.254c-3.664-0.131-5.758,0.262-5.955,1.047
		c-0.195,0.785-2.159,3.533,0,5.627c2.16,2.094,1.636,2.842,1.505,3.744c0.655,1.032,7.264,2.185,7.918-1.008
		c1.637-2.671,2.226-1.492,2.945-1.166c0.719,0.327,2.553,4.515,2.159,5.889c-0.394,1.375,0.393,4.32,1.7,4.712
		C479.951,243.263,481.914,242.872,481.914,242.872z"/>
	<polyline fill="none" stroke="#000000" stroke-linecap="round" stroke-linejoin="round" stroke-miterlimit="10" points="
		463.461,224.876 462.414,228.736 464.771,224.614 462.807,229.915 466.014,224.614 463.658,230.7 467.126,224.614 464.312,231.579 
		468.434,224.614 464.771,232.99 469.416,224.941 465.162,233.907 470.528,225.466 465.947,234.444 471.51,226.054 466.963,234.895 
		472.622,226.578 468.499,234.895 473.538,227.206 470.066,234.692 474.323,228.263 473.604,231.289 475.37,229.195 
		474.586,231.579 476.548,229.754 475.271,232.801 477.268,230.7 476.287,233.514 478.119,231.579 476.68,234.444 479.231,232.859 
		477.137,235.346 479.886,233.569 477.595,236.328 480.515,234.444 477.464,237.963 481.392,235.346 477.464,239.337 
		482.045,236.328 477.726,240.4 482.438,237.439 478.054,241.375 482.438,238.683 478.707,242.085 482.438,239.927 480.082,242.085 
		481.914,241.104 481.392,242.085 	"/>
	<path fill="none" stroke="#000000" stroke-linecap="round" stroke-linejoin="round" stroke-miterlimit="10" d="M474.781,222.389
		c0,0-8.247-5.562-10.208-6.085"/>
	<path fill="none" stroke="#000000" stroke-linecap="round" stroke-linejoin="round" stroke-miterlimit="10" d="M460.779,232.99
		c0,0,3.468,8.792-2.029,10.056c0,0-3.73,1.021-3.206-1.671c1.243-0.467,2.096-0.141,2.814-0.533
		c0.719-0.392,1.962-2.617,2.028-3.337C460.451,236.785,460.976,233.317,460.779,232.99z"/>
	<polyline fill="none" stroke="#000000" stroke-linecap="round" stroke-linejoin="round" stroke-miterlimit="10" points="
		456.134,242.085 457.752,242.085 459.471,241.375 460.255,240.776 460.583,239.664 461.106,236.896 	"/>
	
		<line fill="none" stroke="#000000" stroke-linecap="round" stroke-linejoin="round" stroke-miterlimit="10" x1="478.447" y1="232.269" x2="479.021" y2="232.99"/>
	<path fill="none" stroke="#000000" stroke-linecap="round" stroke-linejoin="round" stroke-miterlimit="10" d="M436.561,281.216
		c0,0-4.987,6.136-9.078,9.408"/>
	<path fill="none" stroke="#000000" stroke-linecap="round" stroke-linejoin="round" stroke-miterlimit="10" d="M472.146,291.359
		c0,0-13.088-9.898-13.333-10.553"/>
	
		<line fill="none" stroke="#000000" stroke-linecap="round" stroke-linejoin="round" stroke-miterlimit="10" x1="454.067" y1="303.956" x2="455.54" y2="324.079"/>
	
		<line fill="none" stroke="#000000" stroke-linecap="round" stroke-linejoin="round" stroke-miterlimit="10" x1="430.509" y1="309.683" x2="429.608" y2="337.495"/>
	<path fill="none" stroke="#000000" stroke-linecap="round" stroke-linejoin="round" stroke-miterlimit="10" d="M410.359,312.02
		c0,0,8.864,21.127,12.278,24.079"/>
	<path fill="none" stroke="#000000" stroke-linecap="round" stroke-linejoin="round" stroke-miterlimit="10" d="M417.857,314.019
		c0,0,5.577,11.204,6.203,13.253"/>
	<path fill="none" stroke="#000000" stroke-linecap="round" stroke-linejoin="round" stroke-miterlimit="10" d="M486.66,269.053
		c0,0,2.732,29.536,0,32.268c-2.731,2.732-5.634,9.673-7.512,9.105"/>
	<path fill="none" stroke="#000000" stroke-linecap="round" stroke-linejoin="round" stroke-miterlimit="10" d="M465.48,261.711
		c0,0-9.049-13.829-33.458-3.756c-0.678,1.707,1.867,4.438,16.729,4.438S465.48,261.711,465.48,261.711z"/>
	<path fill="none" stroke="#000000" stroke-linecap="round" stroke-linejoin="round" stroke-miterlimit="10" d="M463.937,261.114
		c0,0-8.698-5.815-14.613-5.613c-0.051,0.505,5.148-1.263,12.535,3.489"/>
	<path fill="none" stroke="#000000" stroke-linecap="round" stroke-linejoin="round" stroke-miterlimit="10" d="M439.225,256.108
		c0,0-1.884,4.045,3.626,5.006c0,0-9.1,0.204-9.96-2.502c1.112,0.024,5.41-1.896,5.41-1.896l0.924,3.489l-4.817-1.315l3.235-1.011
		l0.455,1.112l-0.96-0.377"/>
	<path fill="none" stroke="#000000" stroke-linecap="round" stroke-linejoin="round" stroke-miterlimit="10" d="M451.157,253.528
		c0,0-9.446-3.893-14.424,1.967c0,0,9.253-2.625,12.59-2.018c-2.73-0.152-7.73-0.855-9.485,0.4"/>
	<path fill="none" stroke="#000000" stroke-linecap="round" stroke-linejoin="round" stroke-miterlimit="10" d="M444.746,244.483
		c0,0,2.885,3.021,4.577,3.261c1.692,0.24,8.7,2.637,9.297,3.501c0.597,0.863,2.034,3.679,2.273,3.901
		c0.24,0.223,1.333,0.785,2.081,0c0.695-0.728-0.96-3.186-4.354-6.523c-3.395-3.337-6.869-4.753-8.894-4.095
		c-2.022,0.657-4.752-0.455-4.752-0.455"/>
	<polyline fill="none" stroke="#000000" stroke-linecap="round" stroke-linejoin="round" stroke-miterlimit="10" points="
		462.189,254.65 460.511,252.261 457.978,249.519 454.866,248.128 450.249,246.881 446.651,245.203 451.756,245.491 
		457.441,248.416 450.297,246.114 	"/>
	<path fill="none" stroke="#000000" stroke-linecap="round" stroke-linejoin="round" stroke-miterlimit="10" d="M439.838,246.114
		c0,0-5.896,4.507-6.325,6.522c0.767,1.582,1.629,0.72,2.014,0.24c0.384-0.48,4.867-5.228,6.916-4.94
		c2.051,0.288,4.019,0.672,5.552,0.145C449.529,247.553,442.041,243.478,439.838,246.114z"/>
	<polyline fill="none" stroke="#000000" stroke-linecap="round" stroke-linejoin="round" stroke-miterlimit="10" points="
		434.423,252.588 436.733,249.926 439.225,247.888 441.138,246.737 442.442,246.066 444.207,246.689 446.651,247.313 
		441.711,247.313 	"/>
	<path fill="none" stroke="#000000" stroke-linecap="round" stroke-linejoin="round" stroke-miterlimit="10" d="M448.906,248.081
		c0,0,4.364,4.938,9.229,3.512l-7.264-2.792"/>
	
		<line fill="none" stroke="#000000" stroke-linecap="round" stroke-linejoin="round" stroke-miterlimit="10" x1="443.945" y1="238.113" x2="443.945" y2="240.4"/>
	<path fill="none" stroke="#000000" stroke-linecap="round" stroke-linejoin="round" stroke-miterlimit="10" d="M440.537,350.149
		c0,0,0.952,27.546,0.319,31.529"/>
	<path fill="none" stroke="#000000" stroke-linecap="round" stroke-linejoin="round" stroke-miterlimit="10" d="M392.448,302.345
		c0,0,8.019,37.969,4.507,43.569"/>
	<path fill="none" stroke="#000000" stroke-linecap="round" stroke-linejoin="round" stroke-miterlimit="10" d="M402.383,331.918"/>
	<path fill="none" stroke="#000000" stroke-linecap="round" stroke-linejoin="round" stroke-miterlimit="10" d="M412.447,375.71
		c0,0,0.296,17.349,4.133,22.356c3.838,5.008,6.911,18.108,6.058,22.258"/>
	<path fill="none" stroke="#000000" stroke-linecap="round" stroke-linejoin="round" stroke-miterlimit="10" d="M468.846,315.95
		c0,0-9.266,64.509-14.874,74.823"/>
	<path fill="none" stroke="#000000" stroke-linecap="round" stroke-linejoin="round" stroke-miterlimit="10" d="M397.844,473.188
		c0,0,33.092,25.044,72.222,4.556"/>
	<path fill="none" stroke="#000000" stroke-linecap="round" stroke-linejoin="round" stroke-miterlimit="10" d="M396.955,485.802
		c0,0,19.485,6.057,24.206,6.965c4.721,0.908,40.784,4.021,48.906-6.965"/>
	<path fill="none" stroke="#000000" stroke-linecap="round" stroke-linejoin="round" stroke-miterlimit="10" d="M396.955,490.034
		c0,0,17.952,23.191,33.104,22.992c15.152-0.2,33.441-10.383,38.252-19.153"/>
	<path fill="none" stroke="#000000" stroke-linecap="round" stroke-linejoin="round" stroke-miterlimit="10" d="M398.788,513.254
		c0,0,23.01,9.104,28.694,11.835c5.683,2.732,28.746-1.846,36.454-14.111"/>
	<path fill="none" stroke="#000000" stroke-linecap="round" stroke-linejoin="round" stroke-miterlimit="10" d="M293.147,367.463
		c0,0-79.882,26.396-72.597,87.914c3.643-7.229,8.65-13.834,8.65-13.834s5.008,2.962,5.463-5.916
		c2.276,12.064,7.739,38.203,27.316,50.175c11.382,10.15,12.748,16.526,12.292,22.444c-0.455,5.917-24.585,41.884-25.041,45.07
		c-0.455,3.188-13.658,10.928-14.568,22.31"/>
	<path fill="none" stroke="#000000" stroke-linecap="round" stroke-linejoin="round" stroke-miterlimit="10" d="M220.551,455.377
		c0,0-26.862,70.625-24.585,83.827c-8.195,13.657-13.404,30.05-13.404,33.69"/>
	<path fill="none" stroke="#000000" stroke-linecap="round" stroke-linejoin="round" stroke-miterlimit="10" d="M299.314,378.035
		c0,0,26.861,51.447-13.203,121.105c-5.463,10.47-7.952,11.141-10.472,11.837"/>
	<path fill="none" stroke="#000000" stroke-linecap="round" stroke-linejoin="round" stroke-miterlimit="10" d="M252.875,550.585
		c0,0-2.276,20.033,0,25.041"/>
	<path fill="none" stroke="#000000" stroke-linecap="round" stroke-linejoin="round" stroke-miterlimit="10" d="M522.33,405.204
		c0,0,39.679-4.86,40.589,91.659c-0.454,5.919-0.454,14.57,2.277,19.123s-7.74,15.477-11.838,16.844s-16.075,9.562-31.028,3.187"/>
	<path fill="none" stroke="#000000" stroke-linecap="round" stroke-linejoin="round" stroke-miterlimit="10" d="M543.987,538.415
		c0,0-2.01,36.757,2.543,43.586"/>
</g>
</svg>
