<?xml version="1.0" encoding="utf-8"?>
<!-- Generator: Adobe Illustrator 15.1.0, SVG Export Plug-In  -->
<!DOCTYPE svg PUBLIC "-//W3C//DTD SVG 1.1//EN" "http://www.w3.org/Graphics/SVG/1.1/DTD/svg11.dtd" [
	<!ENTITY ns_flows "http://ns.adobe.com/Flows/1.0/">
]>
<svg version="1.1"
	 xmlns="http://www.w3.org/2000/svg" xmlns:xlink="http://www.w3.org/1999/xlink" xmlns:a="http://ns.adobe.com/AdobeSVGViewerExtensions/3.0/"
	 x="0px" y="0px" width="842px" height="595px" viewBox="-245.746 -127.891 842 595"
	 overflow="visible" enable-background="new -245.746 -127.891 842 595" xml:space="preserve">
<defs>
</defs>
<path fill="none" stroke="#FFFFFF" stroke-linecap="round" stroke-linejoin="round" stroke-miterlimit="10" d="M115.667,62.153
	c0,0,0,1.125-1.125,3c-1.125,0-3.875-0.625-6.625,3.625c-3,7.875,8.75,14.125,10,14c0.375,1,4.625,4.375,5.5,2.5
	c2,11.875,20.75,20.125,23.5,20.75s15.75,1.875,17.625,1.125s4.75-4,9.375-10.75c7.5-9.625,6.625-24.25,6.625-25.125
	s0.25-12.125,0.752-13.5s0.498-6.75,0-7.375s-0.127-9.375-0.002-13.5s-5.375-10.75-6.75-10.375s-5.125,3.875-7,5.5
	s-3.625,0-4.625-2.125s-5.625,0-5.625,0S142.042,61.153,115.667,62.153z"/>
<path fill="none" stroke="#FFFFFF" stroke-linecap="round" stroke-linejoin="round" stroke-miterlimit="10" d="M140.493,53.348
	c0,0,6.125,0.625,7.5,1.25s13,3.75,15.875,0c-1.625,3.25-9.375,5-13.75,3.375s-9.625-3.375-10.375-3.375
	S140.493,53.348,140.493,53.348z"/>
<path fill="none" stroke="#FFFFFF" stroke-linecap="round" stroke-linejoin="round" stroke-miterlimit="10" d="M170.292,51.653
	c0,0,1.5,4.25,5.25,2.625s6.112-1.751,6.119-1.127c-0.037-0.884-0.243-2.463-0.243-2.463s-3.751,0.34-4.876,0.965
	S173.042,54.153,170.292,51.653z"/>
<path fill="none" stroke="#FFFFFF" stroke-linecap="round" stroke-linejoin="round" stroke-miterlimit="10" d="M118.253,61.955
	c0,0-1.086,13.573,4.789,14.698c-0.625-3-0.551-13.067,1.537-16.034"/>
<path fill="none" stroke="#FFFFFF" stroke-linecap="round" stroke-linejoin="round" stroke-miterlimit="10" d="M123.503,63.362
	c0,0,6.789,4.258,7.914,3.587s1.75-2.671,4.75-2.671s25.375-0.75,25.125,6.5s-6.5,11-9.375,11.125s-15.625,0.875-19.5-5.25
	c-0.625-5.375-0.189-8.331,0.125-9.704"/>
<path fill="none" stroke="#FFFFFF" stroke-linecap="round" stroke-linejoin="round" stroke-miterlimit="10" d="M162.292,71.778
	c0,0,4.625-3.75,6.125,0c-0.25-2.25-0.375-4.283,1.375-4.829s15.249-0.796,15.249-0.796s5,0.179,3.875,6.527
	s-4.375,8.098-7.999,8.223c-3.625,0.125-8.625,0-8.625,0"/>
<path fill="none" stroke="#FFFFFF" stroke-linecap="round" stroke-linejoin="round" stroke-miterlimit="10" d="M170.292,58.02
	c0,0-1,4.552-1.75,5.343s-2.375,6.97-1.375,9.318s6.25,6.084,4.625,8.279s-3.75,2.319-3.75,2.319"/>
<path fill="none" stroke="#FFFFFF" stroke-linecap="round" stroke-linejoin="round" stroke-miterlimit="10" d="M162.292,78.778
	c0,0-3.125,2.438-1.75,3.219"/>
<path fill="none" stroke="#FFFFFF" stroke-linecap="round" stroke-linejoin="round" stroke-miterlimit="10" d="M169.477,63.362
	c0,0,4.981-1.084,6.211-1.084s5.605,1.043,6.729,1.084c1.125-0.584,0.75-1.084,0.75-1.084S172.786,59.946,169.477,63.362z"/>
<path fill="none" stroke="#FFFFFF" stroke-linecap="round" stroke-linejoin="round" stroke-miterlimit="10" d="M156.917,63.362
	c0,0-9-1.138-10.875-1.861s-8.75-2.848-9.5-2.848c1.625-0.375,9.125,1.433,10.188,1.966S156.917,63.362,156.917,63.362z"/>
<path fill="none" stroke="#FFFFFF" stroke-linecap="round" stroke-linejoin="round" stroke-miterlimit="10" d="M134.292,60.62
	c0,0,2.514,7.534,10.257,7.284s9.743-5.625,9.243-8.5"/>
<path fill="none" stroke="#FFFFFF" stroke-linecap="round" stroke-linejoin="round" stroke-miterlimit="10" d="M136.542,63.362
	c0,0,15.285-0.482,15.33,1.717c-1.948,1.491-8.579,4.559-10.08,1.87s-0.492-1.726-0.125-2.669"/>
<path fill="none" stroke="#FFFFFF" stroke-linecap="round" stroke-linejoin="round" stroke-miterlimit="10" d="M168.042,66.153
	c0,0,7.125,4.9,11.625-0.487"/>
<path fill="none" stroke="#FFFFFF" stroke-linecap="round" stroke-linejoin="round" stroke-miterlimit="10" d="M177.792,66.93
	c0,0,0-2.901-3.375-2.526s-4.125,1.257-4.125,2.441"/>
<line fill="none" stroke="#FFFFFF" stroke-linecap="round" stroke-linejoin="round" stroke-miterlimit="10" x1="141.061" y1="59.403" x2="148.67" y2="61.821"/>
<polyline fill="none" stroke="#FFFFFF" stroke-linecap="round" stroke-linejoin="round" stroke-miterlimit="10" points="
	182.647,62.797 178.008,62.105 175.038,61.821 172.23,62.432 "/>
<polyline fill="none" stroke="#FFFFFF" stroke-linecap="round" stroke-linejoin="round" stroke-miterlimit="10" points="
	141.468,64.995 142.729,67.396 142.099,64.75 143.258,67.396 142.892,64.75 144.079,67.396 143.869,64.587 144.866,67.396 
	144.549,64.75 145.456,67.396 145.049,64.587 146.066,67.396 145.659,64.791 146.73,67.396 146.473,64.587 147.653,66.949 
	147.206,64.587 148.345,66.5 148.024,64.608 149.037,66.153 149.037,64.37 149.565,65.883 149.925,64.807 150.298,65.442 "/>
<polyline fill="none" stroke="#FFFFFF" stroke-linecap="round" stroke-linejoin="round" stroke-miterlimit="10" points="
	170.684,65.883 171.091,67.192 171.294,65.666 171.742,67.396 172.102,65.32 172.23,67.64 172.82,64.658 172.82,67.909 
	173.491,64.658 173.288,67.909 174.042,64.658 173.855,68.179 174.712,64.658 174.549,68.015 175.2,64.658 175.2,68.143 
	175.688,64.658 175.688,68.015 176.352,64.832 176.35,67.909 177.206,65.294 177.032,67.396 177.439,66.153 "/>
<path fill="none" stroke="#FFFFFF" stroke-linecap="round" stroke-linejoin="round" stroke-miterlimit="10" d="M174.026,91.316
	c0,0-3.806-5.34-6.076-3.868c-1.303,0.315-1.303-0.252-1.682-0.567s-2.628-0.105-3.195,0.21s-10.553,5.129-11.373,5.066
	c2.649-0.399,12.382-3.847,14.379-3.658S171.146,89.613,174.026,91.316z"/>
<path fill="none" stroke="#FFFFFF" stroke-linecap="round" stroke-linejoin="round" stroke-miterlimit="10" d="M172.723,90.055
	l-3.931-2.586c0,0,1.598,1.451,1.535,1.451s-2.229-1.072-2.229-1.072l-0.231,0.357l-2.207-0.862l-1.85,0.105l-4.562,2.166
	l5.592-1.661l1.388,0.105"/>
<path fill="none" stroke="#FFFFFF" stroke-linecap="round" stroke-linejoin="round" stroke-miterlimit="10" d="M171.504,90.644
	c0,0-2.775,2.712-6.307,2.501s-10.364-0.673-10.911-0.757c0,0,9.41-2.766,10.99-2.947s5.352,0.94,5.505,1.178
	s-3.262,1.614-4.451,1.648s-6.524-0.408-6.524-0.408h-1.597l-0.9,0.119l3.992-0.689c0,0,7.205,0.209,7.951-0.398l-2.095-0.47
	l-2.508,0.018l-3.059,0.374l4.144-1.014"/>
<path fill="none" stroke="#FFFFFF" stroke-linecap="round" stroke-linejoin="round" stroke-miterlimit="10" d="M174.542,26.07
	c0,0,6.167-12.667-4.917-11.833s-15.667,13-18.333,15.833s-7.963,14.333-10.231,16.333s-14.019,9.667-15.685,10.333"/>
<path fill="none" stroke="#FFFFFF" stroke-linecap="round" stroke-linejoin="round" stroke-miterlimit="10" d="M166.459,31.903
	c0,0,1.583-10.083-1-10.417s-5.666,2.053-7.583,5.026c-1.242,1.927-4.583,7.015-6.882,10.584c-1.249,1.938-2.19,3.429-2.324,3.722
	c-0.378,0.833-1.94,4.083-1.94,4.083l2.562-3.917l1.522-2c0.049-0.131,1.04-1.697,1.04-1.697l0.714-1.221l1.428-2.026l1.313-2.28
	l1.335-2.21l1.037-1.105l0.322,0.369l1.29-0.346l-1.497-0.806l4.283,0.967l-3.892-1.75l7.968,3.754l-7.738-4.261l8.014,3.639
	l-7.484-4.076l7.53,3.27l-7.093-3.938l7.07,3.063l-6.609-3.569l6.771,2.717l-6.287-3.362l6.287,2.533l-5.55-3.178l5.458,2.233
	l-4.767-2.717l4.813,1.75l-4.145-2.096l4.03,1.312l-3.132-1.658l2.948,0.691l-1.75-1.059l1.128,0.299l0.23,9.925l-2.096-2.072
	l1.52,0.714"/>
<polyline fill="none" stroke="#FFFFFF" stroke-linecap="round" stroke-linejoin="round" stroke-miterlimit="10" points="
	160.913,56.638 156.017,57.881 158.044,56.868 154.755,58.091 156.342,56.753 153.804,58.091 154.984,56.638 152.995,58.091 
	153.804,56.351 152.229,57.862 152.746,56.141 151.37,57.786 151.694,55.988 150.602,57.403 150.795,55.758 149.782,57.135 
	150.146,55.567 149.266,57.001 149.266,55.28 148.661,56.686 148.749,55.127 148.156,56.609 148.08,54.802 147.41,56.255 
	147.257,54.63 146.797,56.083 146.48,54.458 146.01,56.007 146.01,54.324 145.326,55.682 145.211,54.228 144.905,55.337 
	144.809,54.228 144.561,55.28 144.33,54.228 144.121,55.127 143.776,54.113 143.585,55.031 143.146,54.113 142.992,54.802 
	142.61,54.037 142.495,54.726 142.323,54.037 141.94,54.534 141.749,53.846 141.233,54.266 140.716,54.056 "/>
<polyline fill="none" stroke="#FFFFFF" stroke-linecap="round" stroke-linejoin="round" stroke-miterlimit="10" points="
	171.929,53.252 173.746,54.132 173.669,53.444 174.53,54.132 174.53,53.252 175.314,53.903 175.314,52.668 176.06,53.654 
	176.352,52.392 176.883,53.501 177.093,52.105 177.706,52.908 177.792,51.799 178.393,52.778 178.661,51.626 179.215,52.545 
	179.465,51.474 179.943,52.43 180.288,51.397 180.879,52.334 180.879,51.244 "/>
<path fill="none" stroke="#FFFFFF" stroke-linecap="round" stroke-linejoin="round" stroke-miterlimit="10" d="M176.352,26.987
	c0,0,7.691-13.667-1.393-16.917c-9.083-3.25-19.606,5.917-21.095,9.917s-3.905,7.083-4.489,7.75s-3.82,4.833-4.827,6.083
	s-19.918,14.833-21.046,15.583s-12.794,7.333-12.794,7.333"/>
<path fill="none" stroke="#FFFFFF" stroke-linecap="round" stroke-linejoin="round" stroke-miterlimit="10" d="M140.626,40.07
	c0,0-12.25,12.125-16.5,14.062s-5.917,3.503-6.583,3.887"/>
<path fill="none" stroke="#FFFFFF" stroke-linecap="round" stroke-linejoin="round" stroke-miterlimit="10" d="M177.542,27.737
	c0,0,8.833-9.083,2.833-11.25l-3.334,10.707l3.793-9.898l-3.029,9.505l3.585-9.135l-2.382,7.678l2.798-7.054l-1.434,5.227
	l1.642-3.839"/>
<path fill="none" stroke="#FFFFFF" stroke-linecap="round" stroke-linejoin="round" stroke-miterlimit="10" d="M176.405,9.97
	c0,0-9.186-6.638-24.704-2.733c0,0-11.376,4.02-12.916,6.961c0,0-4.868,9.748-8.368,13.54"/>
<path fill="none" stroke="#FFFFFF" stroke-linecap="round" stroke-linejoin="round" stroke-miterlimit="10" d="M154.286,5.414
	c0,0-22.139-8.317-39.32,0.592s-30.979,28.771-32.02,48.126S81.514,91.451,78,94.965s-8.851,10.653-8.981,12.42
	c2.994-1.487,9.241-13.071,13.016-13.332c-2.863,5.857-11.454,15.359-11.454,18.223c3.124-4.295,8.721-10.804,8.721-10.804
	s-2.083,8.07-5.467,12.105s-7.289,8.721-7.289,8.721s-6.248,3.254-6.898-0.911c-1.041,1.952,0.65,4.816,6.898,3.514
	c-2.083,4.946-4.816,28.245,6.508,40.481c-2.733-4.947-12.33-18.812-4.035-41.392c-1.172,14.057-2.604,23.82,4.295,32.15
	c-1.692-4.686-2.212-9.633-2.212-11.715c2.994,8.592,9.501,19.525,9.501,19.525s1.301-21.088,5.987-27.335
	s12.496-11.584,12.496-11.584l9.241-1.171l4.946,1.041c0,0-1.432,0.651,0,1.692s13.016-0.13,14.448-8.591
	s-0.651-20.044-1.171-21.346s-4.097-9.173-4.261-10.834"/>
<path fill="none" stroke="#FFFFFF" stroke-linecap="round" stroke-linejoin="round" stroke-miterlimit="10" d="M101.695,86.725
	c0.75-3.567-0.375-7.486,0-13.168c3.719-1.843,6.856-10.289,9.188-19.422c2.249-8.811,3.749-18.262,4.301-23.045
	c1.125-9.742,14.801-21.119,14.801-21.119s-8.29,25.684-11.054,28.309s-1.676,6.5-2.095,7.875c-0.353,1.159-4.426,7.068-4.544,7.195
	l-0.876-0.339l0.375-0.879l0.69,0.727c0,0-0.506-1.5-0.45-1.462s0.806,0.712,0.806,0.712l-0.769-1.35l1.163,0.693l-0.938-1.331
	l1.436,0.525l-1.268-1.387l1.631,0.693l-1.388-1.443l1.969,0.788l-1.894-1.594l2.231,0.9l-2.043-1.556l2.438,0.975l-2.362-1.631
	l2.757,1.012l-2.551-1.631l2.925,1.087l-2.737-1.763l3.094,1.087l-3.038-1.894l3.131,0.919l-2.895-1.762l2.895,1.013l-2.775-1.781
	l2.644,0.938L114,41.983l2.625,0.919l-2.457-1.613l2.541,0.825l-2.354-1.481l2.48,0.731l-2.424-1.5l2.531,0.675l-2.456-1.293
	l2.775,0.637l-2.625-1.35l2.905,0.75l-2.812-1.387l3.337,0.844l-3.168-1.538l3.619,0.994l-3.525-1.594l3.938,1.106l-3.9-1.913
	l4.162,1.369l-4.068-1.987l4.368,1.425l-4.218-1.968l4.612,1.237l-4.594-1.987l4.875,1.406l-4.688-2.229l4.987,1.573l-4.875-2.062
	l5.194,1.444l-5.194-2.043l5.381,1.406l-5.288-2.081l5.587,1.462l-5.55-2.137l5.831,1.65l-5.755-2.399l5.98,1.744l-5.606-2.4
	l5.812,1.875l-5.681-2.737l5.962,2.175l-5.644-2.792l5.793,2.229l-5.582-2.775l5.938,2.231L117,26.628l5.918,2.231l-5.581-2.7
	l5.775,2.119l-5.531-2.662l5.643,2.121l-5.362-2.608l5.512,2.138l-5.325-2.719l5.512,2.194l-5.194-2.794l5.475,2.325l-5.119-2.832
	l5.362,2.288l-4.987-2.812l5.156,2.25l-4.743-2.775l4.931,2.212l-4.631-2.812l4.837,2.25l-4.388-2.793l4.631,2.175l-4.312-2.662
	l4.538,1.968l-4.181-2.381l4.537,1.763l-4.125-2.231l4.219,1.481l-3.731-2.062l3.956,1.443l-3.637-1.95l3.806,1.256l-3.45-1.744
	l3.712,1.237l-3.307-1.706l3.494,1.162l-2.962-1.586l3.168,0.968l-2.831-1.508l3.094,0.945l-2.494-1.462l2.644,0.75l-2.194-1.379
	l2.419,0.686l-1.879-1.2l2.067,0.515l-1.575-1.077l1.763,0.469l-1.2-1.012l1.35,0.281l-0.75-0.881l1.087,0.15l-0.544-0.712
	l0.75,0.075l-0.019-0.6l0.506-0.769"/>
<path fill="none" stroke="#FFFFFF" stroke-linecap="round" stroke-linejoin="round" stroke-miterlimit="10" d="M118.932,17.412
	c0,0-18.548,26.941-18.548,39.325s-0.75,43.11-1.874,48.543"/>
<path fill="none" stroke="#FFFFFF" stroke-linecap="round" stroke-linejoin="round" stroke-miterlimit="10" d="M115.801,15.725
	c0,0-19.727,28.333-19.727,34.963s-1.124,45.225-1.874,47.286s-2.436,17.424-10.117,23.794c-2.249,4.122-3.561,17.425-2.062,23.045"
	/>
<path fill="none" stroke="#FFFFFF" stroke-linecap="round" stroke-linejoin="round" stroke-miterlimit="10" d="M119.441,86.725
	c0,0,7.597,8.922,6.448,15.051c-0.638,1.149-1.31,1.341-1.31,1.341s-1.755-9.609-4.181-11.827
	C119.633,88.625,119.441,86.725,119.441,86.725z"/>
<polyline fill="none" stroke="#FFFFFF" stroke-linecap="round" stroke-linejoin="round" stroke-miterlimit="10" points="
	124.58,102.095 125.378,101.712 124.58,101.201 125.378,100.946 124.58,100.372 125.997,100.044 124.293,99.478 125.894,99.012 
	124.038,99.012 125.741,98.205 123.782,98.205 125.529,97.373 123.782,97.373 124.89,96.541 123.503,96.541 124.58,95.647 
	123.08,95.647 124.449,94.524 122.725,94.921 124.163,93.926 122.725,94.179 123.503,93.157 121.959,93.803 123.216,92.158 
	121.662,93.157 122.725,91.333 121.662,92.158 122.425,90.853 120.846,91.788 122.031,90.241 120.399,91.29 121.377,89.441 
	120.399,90.055 120.966,88.699 120.144,89.008 120.463,88.018 120.103,87.883 119.578,87.686 "/>
<path fill="none" stroke="#FFFFFF" stroke-linecap="round" stroke-linejoin="round" stroke-miterlimit="10" d="M114.845,62.309
	c0,0-3.082,1.971-5.235,2.349s-2.181,0.992-2.181,0.992l-3.093,5.426c0,0-1.621,2.865-1.43,4.206s1.149,6.768,1.341,7.15
	s4.605,11.571,4.473,12.489s1.09,7.238,0,8.961c1.464-2.937,0.89-9.065,0.826-9.959s0.127-2.634,0.127-2.634s1.915-2.58,1.979-2.59
	s1.404-1.033,0.191-4.48s-2.672-5.682-3.124-6.001s-1.292-5.538-1.292-5.538s-0.63-5.122,2.882-6.527s3.122-0.916,3.959-1.495
	S114.972,62.679,114.845,62.309z"/>
<polyline fill="none" stroke="#FFFFFF" stroke-linecap="round" stroke-linejoin="round" stroke-miterlimit="10" points="
	114.443,63.272 113.843,64.117 113.167,63.929 113.167,64.68 112.455,64.249 110.954,65.037 109.471,65.543 107.764,66.144 
	109.284,66.256 108.176,67.194 107.429,67.063 106.957,69.296 106.562,68.189 105.849,69.897 107.144,70.103 105.211,70.647 
	106.938,71.004 104.798,71.473 106.919,72.055 104.311,72.467 106.919,73.086 103.86,73.349 107.2,74.081 103.56,74.081 
	107.294,75.04 103.56,74.946 107.429,75.865 103.56,75.865 107.688,76.653 103.767,76.859 107.951,77.535 103.823,77.854 
	108.307,78.436 103.992,78.886 108.916,79.187 104.198,79.824 109.246,79.918 104.442,80.781 109.677,80.781 104.573,81.738 
	110.108,81.625 104.911,82.751 110.597,82.47 105.23,83.635 110.897,83.278 105.568,84.554 111.31,84.16 105.906,85.361 
	111.572,85.023 106.225,86.112 111.76,85.905 106.525,86.975 111.816,86.725 106.938,87.686 111.647,87.686 107.182,88.57 
	111.291,88.57 107.429,89.414 110.278,89.583 107.745,90.202 109.64,90.483 108.157,91.215 109.152,91.722 109.001,93.673 
	108.383,91.91 "/>
<path fill="none" stroke="#FFFFFF" stroke-linecap="round" stroke-linejoin="round" stroke-miterlimit="10" d="M116.709,21.456
	c0,0-6.999,14.115-7.708,17.781s-4.042,15.917-4.709,17.5s-2.167,3.417-2.167,3.417s1.785-5.194,1.434-6.805
	s-0.669-6.028-0.669-6.028"/>
<polyline fill="none" stroke="#FFFFFF" stroke-linecap="round" stroke-linejoin="round" stroke-miterlimit="10" points="
	103.542,57.263 104.324,54.513 104.105,53.403 104.746,53.528 105.011,52.778 103.933,52.513 105.214,51.825 103.792,51.669 
	105.511,51.138 103.542,50.778 105.73,50.356 103.621,49.95 105.964,49.622 103.542,49.045 106.261,48.606 103.449,48.044 
	106.527,47.731 103.339,47.31 106.667,47.013 103.339,46.544 106.949,46.263 103.636,45.794 107.167,45.528 103.933,45.075 
	107.277,44.825 104.308,44.341 107.277,44.216 104.605,43.669 107.429,43.622 104.839,43.138 107.589,43.138 105.152,42.56 
	107.714,42.56 105.417,41.903 107.871,41.903 105.761,41.2 108.011,41.278 106.011,40.653 108.089,40.805 106.23,40.07 
	108.292,40.216 106.574,39.544 108.292,39.606 106.824,39.013 108.511,39.013 107.089,38.372 108.721,38.435 107.429,37.763 
	108.855,37.763 107.746,37.247 109.027,37.247 107.917,36.591 109.261,36.591 108.308,35.981 109.417,35.981 108.652,35.466 
	109.683,35.294 109.027,34.716 110.011,34.622 109.714,34.091 110.371,33.061 110.933,31.95 111.527,30.731 112.074,29.528 
	113.214,27.528 113.73,26.513 "/>
<path fill="none" stroke="#FFFFFF" stroke-linecap="round" stroke-linejoin="round" stroke-miterlimit="10" d="M113.227,125.698
	c10.022,1.67,12.435-14.475,12.435-14.475s-5.196,13.487-14.167,12.683c1.67,0.619,2.351,1.423,2.351,1.423l-0.288-0.987
	c0,0,1.047,0.844,1.109,0.859s-0.188-1.031-0.188-1.031l1.203,1l-0.344-1.203l1.25,1.188l-0.453-1.438l1.062,1.234l-0.406-1.641
	l1.078,1.312l-0.484-1.609l1.192,1.266l-0.614-1.656l1.109,1.125l-0.495-1.531l1.058,1.062l-0.562-1.516l1.125,1.062l-0.578-1.531
	l1.109,0.938l-0.516-1.375l0.984,0.797l-0.562-1.328l1.047,0.656l-0.594-1.188l0.922,0.312l-0.328-0.906l0.844,0.141l-0.344-0.82
	l0.797-0.29l-0.078-0.641l0.531-0.719l0.688-1.406"/>
<path fill="none" stroke="#FFFFFF" stroke-linecap="round" stroke-linejoin="round" stroke-miterlimit="10" d="M86.589,136.617
	c0,0-4.714-6.38-0.547-7.213s9.083-1.167,14-8.75c1.917-2.75,3.333-3.416,4.75-4.333c-1,1.75-1.303,3.25-1.901,3.667
	c1.651,0,5.567-2.25,6.318-3.167c-1.75,2.167-2.5,4.333-3.333,4.5c6.167-2.417,13.417-10.084,14.083-15.167s-2.583-11.909-3-12.996
	s-3.833-8.587-3.833-8.587s24.416,23.667-3.917,39"/>
<polyline fill="none" stroke="#FFFFFF" stroke-linecap="round" stroke-linejoin="round" stroke-miterlimit="10" points="
	114.774,87.265 115.926,88.906 116.097,89.959 117.052,89.959 116.44,90.646 117.518,90.646 116.758,91.576 118.105,91.576 
	117.15,92.556 118.571,92.556 117.518,93.673 118.932,93.364 118.081,94.613 119.578,94.099 118.399,95.495 119.918,94.921 
	118.742,96.401 120.408,95.912 119.11,97.332 120.775,96.867 119.441,98.361 121.094,97.651 119.578,99.218 121.363,98.532 
	119.894,99.953 121.583,99.463 120.065,100.786 121.926,100.418 120.188,101.643 122.196,101.422 120.334,102.623 122.441,102.427 
	120.432,103.456 122.441,103.553 120.506,104.337 122.588,104.558 120.432,105.28 122.588,105.513 120.334,106.149 122.465,106.541 
	120.236,106.958 122.27,107.545 119.991,107.814 122.123,108.354 119.578,108.476 121.877,109.382 119.33,109.234 121.559,110.288 
	118.932,109.945 121.216,111.223 118.579,110.704 120.849,112.027 118.154,111.415 120.383,112.933 117.738,112.002 
	119.967,113.692 117.322,112.664 119.478,114.402 116.783,113.3 118.939,115.162 116.318,113.961 118.449,115.823 115.801,114.525 
	117.91,116.484 115.216,115.112 117.273,117.097 114.774,115.603 116.661,117.806 114.188,116.214 115.951,118.521 113.526,116.851 
	115.314,119.006 112.889,117.341 114.653,119.57 112.326,117.88 113.967,120.084 111.689,118.394 113.232,120.623 111.052,118.909 
	112.546,121.113 110.366,119.325 111.812,121.676 109.656,119.839 111.077,122.142 109.043,120.329 110.366,122.607 
	108.235,120.697 109.754,122.876 107.525,121.113 109.068,123.317 106.717,121.456 108.603,123.709 105.982,121.505 107.06,123.611 
	105.394,119.692 106.374,120.354 106.202,119.325 106.824,119.692 107.305,118.762 104.757,119.962 106.398,123.709 
	104.022,120.207 105.786,123.905 103.361,120.182 104.88,124.052 102.381,118.786 103.092,118.958 102.871,118.198 103.613,117.684 
	101.916,119.251 104.145,124.273 101.328,119.741 103.312,124.273 100.863,120.133 102.333,124.444 100.373,120.77 101.598,124.444 
	99.981,121.505 100.985,124.591 99.369,122.142 100.055,124.591 98.977,122.729 99.393,124.591 98.591,123.44 98.487,124.934 
	97.973,124.224 97.801,125.351 97.213,125.351 95.964,126.649 94.69,127.139 93.686,128.069 92.707,128.828 92.413,128.216 
	92.413,129.71 91.458,128.608 91.85,130.445 90.453,129 91.09,131.106 89.596,129.073 90.453,131.816 88.739,129.392 
	89.743,132.331 87.808,129.587 89.155,132.919 87.098,129.661 88.665,133.242 86.216,129.857 88.053,134.07 85.334,130.175 
	87.612,134.683 84.844,130.812 87.024,135.368 84.844,132.086 86.828,136.079 "/>
<path fill="none" stroke="#FFFFFF" stroke-linecap="round" stroke-linejoin="round" stroke-miterlimit="10" d="M86.126,126.987
	c0,0,0.25-1.917,2.833-2.583s5.25-2.666,6.667-4.083s8.167-7.084,9.083-7.417c-1.25,1.833-4.167,4.584-4.5,4.917
	s-3.333,3.916-3.75,4.833S89.272,129.216,86.126,126.987z"/>
<path fill="none" stroke="#FFFFFF" stroke-linecap="round" stroke-linejoin="round" stroke-miterlimit="10" d="M86.664,126.465
	l0.631,0.523l0.24-1.394l0.61,1.394l0.283-1.851l0.414,1.851l0.218-2.113l0.458,2.113l0.348-2.309l0.37,1.96l0.349-2.33l0.349,2.112
	l0.327-2.439l0.327,2.047l0.283-2.243l0.414,1.808l0.305-2.352l0.327,2.047l0.283-2.374c0,0,0.675,1.938,0.675,1.873
	s0-2.396,0-2.396l0.806,1.524l-0.196-1.895l0.828,1.263l-0.305-1.742l0.871,1.089l-0.261-1.568l0.98,0.697l-0.392-1.372l0.936,0.697
	l-0.327-1.176l0.937,0.152l-0.152-0.806l0.762-0.37l0.85-0.893l2.003-1.873"/>
<path fill="none" stroke="#FFFFFF" stroke-linecap="round" stroke-linejoin="round" stroke-miterlimit="10" d="M79.167,140.653
	c0,0,1.438,10.938,1.25,11.938c0.812-2.375,0.963-2.75,0.963-2.75v4.062"/>
<path fill="none" stroke="#FFFFFF" stroke-linecap="round" stroke-linejoin="round" stroke-miterlimit="10" d="M79.167,140.903
	c0,0-2.188,7.312-1.875,9.938s-0.031,3.375-0.031,3.375s-5.657-9.812-5.344-14.5s4.062-17.837,5.062-19.512s7.354-7.537,7.864-8.981
	s3.886-6.632,4.323-6.882c-0.688,2.938-5.003,11.5-4.845,12.812c3.97-4.438,6.844-7.104,6.844-7.104"/>
<polyline fill="none" stroke="#FFFFFF" stroke-linecap="round" stroke-linejoin="round" stroke-miterlimit="10" points="
	80.274,162.491 79.584,161.315 80.446,160.95 79.167,160.532 80.446,159.905 78.8,159.774 80.603,159.044 78.356,158.913 
	80.603,158.155 77.912,158.155 80.733,157.319 77.389,157.319 80.733,156.456 77.102,156.665 80.969,155.673 76.71,155.829 
	80.969,154.837 76.24,154.968 81.38,154.104 77.729,154.104 80.942,153.06 77.912,153.06 79.976,152.146 77.755,152.015 
	79.924,151.415 77.703,151.231 79.872,150.396 77.65,150.187 79.819,149.402 77.703,149.167 79.767,148.593 77.86,148.279 
	79.663,147.939 78.121,147.495 79.532,147.025 78.199,146.581 79.454,146.163 78.435,145.641 79.062,145.223 78.931,143.629 "/>
<polyline fill="none" stroke="#FFFFFF" stroke-linecap="round" stroke-linejoin="round" stroke-miterlimit="10" points="
	76.789,154.216 75.952,154.341 75.822,153.243 75.221,151.833 74.228,149.978 73.235,147.913 72.504,145.692 71.905,144.229 
	71.905,143.367 69.055,144.812 70.649,144.812 69.055,145.771 70.492,145.771 69.055,146.764 70.701,146.764 69.551,147.861 
	70.806,147.705 69.839,148.854 71.067,148.854 70.074,149.821 71.145,149.69 70.44,150.735 71.25,150.841 71.302,151.964 
	71.905,153.06 "/>
<polyline fill="none" stroke="#FFFFFF" stroke-linecap="round" stroke-linejoin="round" stroke-miterlimit="10" points="
	68.872,144.282 71.905,142.662 68.872,143.367 71.537,142.088 68.741,142.662 71.485,141.382 68.611,141.774 71.197,140.653 
	68.611,140.912 71.433,139.841 68.48,140.023 71.537,139.188 68.611,139.188 71.537,138.273 68.48,138.273 71.72,137.411 
	68.48,137.411 71.905,136.617 68.48,136.497 72.164,135.817 68.48,135.713 72.164,135.034 68.48,134.747 72.399,134.12 
	68.741,133.937 72.399,133.242 68.793,133.022 72.922,132.265 68.768,132.082 73.209,131.245 68.924,131.402 73.418,130.409 
	69.002,130.409 73.575,129.599 68.95,129.278 73.784,128.999 69.133,128.528 73.94,128.058 69.211,127.744 74.124,127.196 
	69.186,126.777 74.437,126.438 69.368,125.811 74.672,125.471 69.499,124.818 75.012,124.688 69.421,123.956 75.299,123.956 
	66.181,122.911 68.741,123.877 65.501,123.224 68.297,124.426 64.535,123.694 68.193,125.027 66.856,124.766 60.302,123.485 
	63.385,124.713 68.088,125.576 66.573,125.968 67.801,126.438 66.495,126.725 67.331,127.274 66.39,127.771 67.069,128.136 
	66.103,128.45 66.756,128.842 65.972,129.129 66.704,129.547 66.128,130.017 65.815,131.454 65.685,133.242 65.554,135.035 
	65.345,137.647 65.24,141.279 "/>
<polyline fill="none" stroke="#FFFFFF" stroke-linecap="round" stroke-linejoin="round" stroke-miterlimit="10" points="
	67.161,122.396 75.299,123.431 67.666,121.815 75.417,122.623 68.095,121.184 75.77,121.891 68.751,120.628 75.998,121.158 
	69.18,119.972 76.2,120.603 69.761,119.366 76.679,119.946 70.165,118.76 76.932,119.29 70.746,118.128 77.512,118.76 
	71.125,117.573 77.942,118.179 71.781,116.992 78.522,117.699 72.21,116.412 79.002,117.22 72.639,115.78 79.381,116.689 
	73.043,115.275 79.86,116.12 73.51,114.771 80.34,115.604 74.003,114.266 80.871,115.2 74.407,113.786 81.38,114.72 74.887,113.18 
	81.754,114.24 75.299,112.599 82.083,113.761 75.695,111.968 82.537,113.23 76.099,111.362 83.042,112.776 76.452,110.807 
	83.497,112.296 76.73,110.15 83.825,111.791 76.957,109.569 84.178,111.337 77.159,109.09 84.607,110.756 77.512,108.609 
	84.844,110.175 77.563,108.054 85.037,109.544 78.018,107.373 85.592,108.988 78.144,106.741 85.845,108.408 78.447,106.084 
	86.126,107.902 78.624,105.58 86.476,107.347 78.8,105.176 86.779,106.817 78.977,104.646 86.981,106.211 79.179,104.341 
	87.536,105.731 79.305,103.661 87.814,105.28 79.431,103.105 88.092,104.747 79.684,102.55 88.647,104.341 79.886,101.868 
	89.304,103.787 79.457,100.984 78.8,100.555 73.321,107.751 "/>
<polyline fill="none" stroke="#FFFFFF" stroke-linecap="round" stroke-linejoin="round" stroke-miterlimit="10" points="
	85.618,115.099 85.845,114.316 86.664,113.735 86.25,113.205 87.385,113.205 86.664,112.271 87.815,112.523 86.931,111.463 
	88.244,112.195 87.385,110.594 88.825,111.672 87.79,109.746 89.532,110.983 88.143,109.064 90.213,110.251 88.294,108.307 
	90.946,109.67 88.724,107.574 91.167,108.584 88.976,106.69 91.602,107.625 89.304,105.756 91.829,106.564 89.658,104.898 
	92.107,105.504 89.81,103.882 92.359,104.341 78.978,99.923 92.486,103.711 79.482,99.418 92.486,103.029 79.836,98.762 
	92.713,102.271 80.189,98.156 92.915,101.666 80.543,97.626 92.915,100.908 81.023,96.969 93.117,100.327 81.38,96.363 
	93.117,99.621 81.73,95.707 93.546,98.838 82.185,95.025 93.647,98.156 82.437,94.268 93.824,97.323 80.568,92.45 82.942,93.939 
	79.962,92.45 81.536,93.788 79.66,93.308 80.366,94.192 79.104,94.369 78.7,95.252 77.665,96.212 76.251,97.853 70.418,105.503 "/>
<path fill="none" stroke="#FFFFFF" stroke-linecap="round" stroke-linejoin="round" stroke-miterlimit="10" d="M94.077,96.792
	l-14.089-4.999l14.089,4.317l-13.735-5.15l13.912,4.368l-13.862-5.15l13.71,4.343l-13.584-4.848l13.736,4.001L80.72,88.965
	l13.534,3.914l-13.407-4.696l13.407,3.863l-13.18-4.418l13.18,3.484l-13.23-4.387l13.432,3.402L81.2,85.986l13.255,3.257
	L81.38,85.28l13.075,3.181L81.38,84.57l13.176,3.083L81.38,83.967l13.277,2.929l-13.129-3.535l13.129,2.676l-12.978-3.358
	l13.079,2.55L81.78,81.921l12.877,2.475L81.73,81.189l12.953,2.446l-12.928-3.026l13.003,2.121l-12.877-2.777l12.877,1.919
	l-12.776-2.55l12.927,1.565l-12.852-2.414l12.852,1.353l-12.877-1.995l12.75,0.985L82.033,77.2l12.877,0.657l-12.726-1.565
	l12.726,0.707l-12.75-1.515l12.75,0.631l-12.65-1.389l12.776,0.354l-12.852-1.061l12.852,0.126l-12.675-0.808h12.675l-12.6-0.656
	l12.6-0.202l-12.549-0.48l12.549-0.454l-12.372-0.228l12.372-0.657l-12.397-0.454l12.523-0.53L82.74,69.246l12.549-0.455
	l-12.625-0.53l12.625-0.202l-12.523-0.53l12.523-0.404l-12.473-0.378l12.473-0.631l-12.397-0.126l12.296-0.707L82.841,65.13
	l12.448-0.783H82.841l12.574-0.909L82.917,63.54l12.372-1.111l-12.347,0.228l12.473-1.111l-12.347,0.303l12.347-1.212l-12.372,0.48
	l12.372-1.288l-12.422,0.429l12.523-1.262l-12.296,0.631l12.296-1.389L83.119,58.59l12.397-1.136l-12.296,0.454l12.296-1.389
	L83.27,57.151l12.246-1.389L83.32,56.495l12.195-1.49l-12.12,0.808l12.12-1.49L83.32,55.081l12.195-1.565L83.472,54.5l12.044-2.02
	l-12.17,1.363l12.17-2.247l-12.019,1.439l12.195-2.272l-12.019,1.464l12.019-2.146L83.75,51.369l11.943-2.045l-11.842,1.389
	l12.22-2.146l-12.119,1.515l12.347-2.248l-12.221,1.263l12.372-1.945l-12.221,1.195l12.675-1.978l-12.448,1.162l12.725-1.995
	l-12.675,1.237l13.079-2.121l-12.927,1.389l13.306-2.197L84.937,45.36l13.432-2.298l-13.255,1.439l13.478-2.323l-13.452,1.667
	L99,41.497l-13.356,1.591l13.786-2.283l-13.735,1.399l14.063-2.134l-13.735,1.275l14.089-2.096l-13.912,1.338l14.468-2.071
	l-14.114,1.338l14.72-2.045l-14.417,1.288l14.761-2.045L87.158,38.29l14.771-1.919l-14.341,1.111l14.539-1.767l-14.109,0.909
	l14.72-1.54l-14.568,1.111l14.998-1.868l-14.695,1.035l15.023-1.667l-14.795,0.909l14.922-1.542l-14.543,0.81l15.175-1.515
	l-14.771,0.705l15.25-1.336l-14.669,0.53l15.048-1.288l-14.72,0.455l15.2-0.985l-14.695,0.101l15.2-0.783h-14.67l15.023-0.732
	L91.88,28.771l15.074-0.479L92.46,28.14l14.969-0.53l-14.514-0.278h14.796l-14.442-0.818l14.594,0.111
	c0,0-14.014-0.656-13.938-0.707s14.291,0.126,14.291,0.126L94.33,25.109l14.391,0.429l-13.76-1.212l14.039,0.631l-13.584-1.338
	l14.002,0.707l-13.295-1.389l13.735,0.707l-13.281-1.515l13.836,0.833l-13.281-1.507l13.76,0.775l-13.18-1.59l13.609,0.815
	L98.51,19.908l13.166,1.01l-12.75-1.515l13.382,0.707l-12.902-1.414l13.23,0.808l-12.498-1.338l13.028,0.656l-12.372-1.41
	l12.599,0.779l-12.018-1.464l12.356,0.858l-11.604-1.364l12.251,0.758l-11.867-1.364l12.22,0.707l-11.665-1.288l12.272,0.69
	l-11.64-1.347l7.416,0.362l-6.93-0.823l6.973,0.28l-6.54-0.756l6.843,0.26l-6.323-0.779h6.756l-5.933-0.693l6.323,0.217
	l-5.283-0.736l5.76,0.39l-5.154-0.909l5.63,0.563l-4.701-1.126l5.195,0.563l-4.522-1.219l5.197,0.743l-4.374-1.327l5.11,0.584
	l-4.431-1.12l5.091,0.536l-3.952-1.185l4.504,0.823l-3.508-1.213l3.864,0.91l-2.738-1.386l3.292,0.866l-2.642-1.559l3.248,1.126
	l-2.068-1.516l2.675,1.126l-1.766-1.372l2.545,1.242l-1.905-1.732l2.468,1.299l-1.559-1.646l2.209,1.429l-1.536-1.906l2.142,1.313
	l-1.126-1.53l1.603,1.343l-0.736-1.646l1.386,1.603l-0.823-1.819l1.473,1.646l-0.477-1.949l1.429,1.775l-0.346-2.079l0.953,1.949
	V3.133l0.967,2.079V2.96l0.678,2.079l0.26-2.079l0.303,1.689l0.477-2.036l0.39,1.949l0.52-1.949l0.173,1.732L129,2.44l0.26,1.776
	l0.726-1.776V4.39l1.049-1.949l-0.39,1.689l1.169-1.949l-0.477,1.862l1.603-1.862l-0.953,1.949l1.819-1.646l-1.256,1.603
	l2.382-1.646l-1.169,1.646l2.166-1.689l-1.04,1.732l2.079-1.949L135.799,4l2.208-1.646l-1.386,1.819l2.252-1.603l-1.212,1.603
	L140,2.744l-1.429,1.559l2.469-1.212l-0.953,1.039l1.862-1.083l-0.78,1.299l1.949-1.169l-0.606,1.299l1.862-0.866v0.78l1.732-0.78
	l-1.055-0.173v0.996l1.679-0.606l-0.408,0.779l1.689-0.303l-0.26,0.52l1.386-0.303c0,0-0.563,0.347-0.347,0.347S151,4.822,151,4.822
	l-1.04,0.39l1.429,0.087l1.949,0.39l0.347,0.317"/>
<path fill="none" stroke="#FFFFFF" stroke-linecap="round" stroke-linejoin="round" stroke-miterlimit="10" d="M111.417,14.566
	c0,0,2.642-6.149,10.524-8.012s15.345-2.641,22.609-1.906s8.961,1.776,8.961,1.776"/>
<path fill="none" stroke="#FFFFFF" stroke-linecap="round" stroke-linejoin="round" stroke-miterlimit="10" d="M81.536,119.528
	c0,0-4.864,6.5-3.304,11.5C79.042,127.403,79.654,121.528,81.536,119.528z"/>
<path fill="none" stroke="#FFFFFF" stroke-linecap="round" stroke-linejoin="round" stroke-miterlimit="10" d="M137.917,26.035
	c0,0-10.625,11.498-11.75,13.54s-1.5,3.982-3.25,5.324"/>
<path fill="none" stroke="#FFFFFF" stroke-linecap="round" stroke-linejoin="round" stroke-miterlimit="10" d="M106.824,97.653
	c0,0-3.192,11.631-5.612,12.94s-2.621,2.31-2.621,2.31s0.077-2,1.202-3s5.875-6.722,5.625-13.111L106.824,97.653z"/>
<path fill="none" stroke="#FFFFFF" stroke-linecap="round" stroke-linejoin="round" stroke-miterlimit="10" d="M106.114,98.073
	c0,0-0.206,1.031-0.206,1.135s-3.509,8.634-3.612,8.771s-2.648,2.614-2.648,2.614l2.236-1.238"/>
<path fill="none" stroke="#FFFFFF" stroke-linecap="round" stroke-linejoin="round" stroke-miterlimit="10" d="M112.512,98.795
	c0,0,2.064,8.117-4.196,11.626c-0.035-1.307,0.688-2.476,1.272-3.302S112.615,101.857,112.512,98.795z"/>
<path fill="none" stroke="#FFFFFF" stroke-linecap="round" stroke-linejoin="round" stroke-miterlimit="10" d="M112.409,102.544
	c0,0-2.102,6.363-3.493,7.017"/>
<path fill="none" stroke="#FFFFFF" stroke-linecap="round" stroke-linejoin="round" stroke-miterlimit="10" d="M106.122,10.769
	c0,0-9.877,2.559-10.847,6.643s-0.462,6.054-0.462,6.054"/>
<path fill="none" stroke="#FFFFFF" stroke-linecap="round" stroke-linejoin="round" stroke-miterlimit="10" d="M90.246,29.615
	c0,0-8.483,5.999-9.756,0.485"/>
<path fill="none" stroke="#FFFFFF" stroke-linecap="round" stroke-linejoin="round" stroke-miterlimit="10" d="M177.042,10.265
	c0,0-7.857-10.99-17.439-9.652"/>
<path fill="none" stroke="#FFFFFF" stroke-linecap="round" stroke-linejoin="round" stroke-miterlimit="10" d="M178.272,4.375
	c14.232,8.694,5.355,18.572,5.355,18.572s4.086,4.228,4.719,8.313c0.635,4.086,0.281,11.272,4.016,15.077
	c-0.773-0.141-5.988-3.804-6.199-9.582c0,7.539,0.986,9.786-0.141,12.29c-0.07,3.491,0.773,3.143,1.549,4.303
	s1.973,5.247,1.973,6.374s2.959,12.328,2.818,12.539s2.818,14.242,3.102,15.082c0.281,0.84,5.143,18.101,13.244,7.322
	c-2.184,6.059-8.947,13.738-15.5-2.889c0.281,11.131,0.062,22.827-4.125,26.772s-7.641,7.75-12.924,6.834
	s-13.416-5.566-14.916-7.257s-5.023-3.03-5.657-3.17s-3.1-0.845-3.1-0.845l-0.786-0.282v-6.442"/>
<path fill="none" stroke="#FFFFFF" stroke-linecap="round" stroke-linejoin="round" stroke-miterlimit="10" d="M190.743,95.863
	c0,0,1.76,23.813-19.234,28.04c-1.127-0.846,17.545-6.162,19.27-28.393"/>
<path fill="none" stroke="#FFFFFF" stroke-linecap="round" stroke-linejoin="round" stroke-miterlimit="10" d="M183.204,105.162
	c-0.07,0.282-6.096,11.765-9.177,12.893"/>
<path fill="none" stroke="#FFFFFF" stroke-linecap="round" stroke-linejoin="round" stroke-miterlimit="10" d="M174.468,110.023
	c8.384-3.664,10.638-28.393,10.638-28.393s-4.97,22.686-11.08,26.42c-0.474-2.184-1.179-2.752,0.724-5.956
	c1.903-3.203,6.371-9.967,6.919-16.378c-3.96,7.045-5.628,7.616-6.399,8.76"/>
<path fill="none" stroke="#FFFFFF" stroke-linecap="round" stroke-linejoin="round" stroke-miterlimit="10" d="M185.6,20.865
	c0,0,3.02-2.816,2.283-7.307"/>
<path fill="none" stroke="#FFFFFF" stroke-linecap="round" stroke-linejoin="round" stroke-miterlimit="10" d="M184.612,22.112
	c0,0,7.914,2.457,8.346,8.242"/>
<path fill="none" stroke="#FFFFFF" stroke-linecap="round" stroke-linejoin="round" stroke-miterlimit="10" d="M174.587,109.968
	l-4.417,5.973c5.284-0.634,13.033-11.202,13.033-11.202"/>
<path fill="none" stroke="#FFFFFF" stroke-linecap="round" stroke-linejoin="round" stroke-miterlimit="10" d="M174.148,118.002
	c0,0,4.114,0.207,8.017-2.534"/>
<polyline fill="none" stroke="#FFFFFF" stroke-linecap="round" stroke-linejoin="round" stroke-miterlimit="10" points="
	152.433,107.386 152.433,113.59 153.357,107.386 153.357,113.709 154.286,107.386 154.286,114.186 155.263,107.572 155.263,114.365 
	156.127,107.602 156.127,114.484 156.902,107.811 156.902,114.871 157.855,107.84 157.676,115.229 158.719,107.9 158.48,115.705 
	159.523,107.9 159.315,116.122 160.417,107.87 160.119,116.509 161.162,107.959 160.834,117.194 161.937,107.93 161.459,117.731 
	162.741,107.9 162.175,118.356 163.575,107.811 162.8,118.982 164.379,107.572 163.515,119.488 165.094,107.386 164.111,119.846 
	165.75,106.947 164.796,120.204 166.405,106.44 165.481,120.65 167.09,105.814 166.196,120.978 167.805,105.162 166.852,121.276 
	168.341,104.534 167.656,121.723 168.997,103.998 168.282,122.11 169.384,103.342 168.937,122.557 170.039,102.657 169.652,122.765 
	170.605,101.912 170.605,114.543 171.112,101.257 171.459,113.828 171.648,100.661 172.244,112.488 172.244,100.095 172.81,111.43 
	172.661,99.201 173.497,110.581 174.026,108.347 174.329,109.449 174.895,108.168 175.252,109.181 175.371,107.386 176.086,108.525 
	176.086,106.857 176.92,107.662 176.687,106.232 177.545,106.768 177.159,105.427 178.022,106.023 177.606,104.739 178.469,105.04 
	178.231,103.729 179.036,104.266 178.616,102.865 179.483,103.193 179.302,101.972 180.204,102.031 179.512,101.048 180.525,100.87 
	179.989,99.916 181.12,99.588 180.406,98.754 181.538,98.308 180.942,97.682 181.538,96.52 182.729,93.035 183.204,90.413 "/>
<path fill="none" stroke="#FFFFFF" stroke-linecap="round" stroke-linejoin="round" stroke-miterlimit="10" d="M173.792,103.283
	l-0.655-4.856c0,0,1.162,3.932,1.162,3.813s-0.581-4.528-0.581-4.528l1.176,3.426l-0.868-4.23c0,0,1.345,3.397,1.345,3.188
	s-0.775-3.843-0.775-3.843l1.281,2.979l-0.834-3.843l1.371,3.128l-0.715-3.962l1.25,3.009l-0.714-3.575l1.191,2.443l-0.739-2.979
	l1.336,2.234l-0.655-2.83l1.043,1.788l-0.507-2.486l1.013,1.414l-0.447-2.025l1.103,0.953l-0.565-1.728l0.923,0.519l-0.238-1.234
	l0.513-0.833l0.709-1.192"/>
<path fill="none" stroke="#FFFFFF" stroke-linecap="round" stroke-linejoin="round" stroke-miterlimit="10" d="M170.527,116.359
	l-0.189,6.639l0.895-6.776v7.017l0.757-7.297l0.138,6.824l0.653-7.094l0.241,6.484l0.396-6.828l0.499,6.329l0.111-6.707l0.731,6.14
	c0,0-0.155-6.57-0.138-6.484s0.877,5.917,0.877,5.917l-0.31-6.415l0.568,1.835v-2.368l0.636,1.531v-2.081l0.705,1.118l-0.12-1.686
	l0.792,0.998l-0.087-1.703l0.739,0.722l0.195-1.462l0.82-0.207l0.895-1.599l0.789-1.101"/>
<polyline fill="none" stroke="#FFFFFF" stroke-linecap="round" stroke-linejoin="round" stroke-miterlimit="10" points="
	173.863,122.765 176.013,121.639 176.687,121.639 176.082,118.286 177.543,121.347 176.874,118.2 178.157,121.003 177.579,118.055 
	178.851,120.59 178.157,117.89 179.418,120.126 179.092,117.632 180.295,119.61 179.797,117.443 180.864,119.317 180.95,117.615 
	181.774,118.543 181.688,116.824 182.668,117.855 182.395,116.239 183.305,117.064 183.047,115.468 184.028,116.394 
	183.752,114.777 184.819,115.468 184.424,113.917 185.405,114.484 184.991,113.143 186.11,113.59 185.508,112.369 186.625,112.713 
	186.11,111.526 187.176,111.608 186.643,110.615 187.485,110.615 187.159,109.789 187.985,109.707 187.624,108.74 188.569,108.448 
	188.329,107.536 188.93,106.212 189.567,104.114 "/>
<path fill="none" stroke="#FFFFFF" stroke-linecap="round" stroke-linejoin="round" stroke-miterlimit="10" d="M113.73,65.123
	c0,0,4.083,1.904,3.517,5.646"/>
<path fill="none" stroke="#FFFFFF" stroke-linecap="round" stroke-linejoin="round" stroke-miterlimit="10" d="M120.467,64.023
	c0,0-1.48,5.65,0,8.657s2.121,3.573,2.121,3.573l-0.685-9.052L120.467,64.023z"/>
<polyline fill="none" stroke="#FFFFFF" stroke-linecap="round" stroke-linejoin="round" stroke-miterlimit="10" points="
	120.728,65.666 120.554,71.466 121.599,73.903 121.599,72.162 121.377,68.637 121.377,66.766 "/>
<path fill="none" stroke="#FFFFFF" stroke-linecap="round" stroke-linejoin="round" stroke-miterlimit="10" d="M151.701,113.828
	c0,0-0.908,2.45,9.842,10.7s6.33,14.5,1.353,15.125s-29.335,3.563-39.656-15.156"/>
<path fill="none" stroke="#FFFFFF" stroke-linecap="round" stroke-linejoin="round" stroke-miterlimit="10" d="M158.667,126.403
	c0,0-8.375,6.637-10.375,7.193"/>
<path fill="none" stroke="#FFFFFF" stroke-linecap="round" stroke-linejoin="round" stroke-miterlimit="10" d="M131.542,129.278
	c0,0,6.625,3.637,9.875,4.318"/>
<path fill="none" stroke="#FFFFFF" stroke-linecap="round" stroke-linejoin="round" stroke-miterlimit="10" d="M165.985,125.278
	c0,0,12.766,10.875,5.474,15.375s-19.292,3.875-28.417,1.375s-20.553-9.287-21.75-15.625"/>
<path fill="none" stroke="#FFFFFF" stroke-linecap="round" stroke-linejoin="round" stroke-miterlimit="10" d="M191.083,115.468
	c0,0,6.459-3.439,26.459,26.561c-2.375,3.625-10.625,12.625-12.25,13"/>
<path fill="none" stroke="#FFFFFF" stroke-linecap="round" stroke-linejoin="round" stroke-miterlimit="10" d="M80.603,163.952
	c0,0-0.943,6.576-3.814,8.576s-0.689,5.5,1.907,6.75c2.597,1.249,17.847,7.749,17.847,7.749"/>
<path fill="none" stroke="#FFFFFF" stroke-linecap="round" stroke-linejoin="round" stroke-miterlimit="10" d="M131.542,180.527
	c0,0,3.12-9.112-24.125-16.575c-16.125-3.174-16,0.785-17.25,1.432c-1.25,0.645-8.912,9.77-9.894,10.77
	c4.269-2.125,9.269-7.5,11.644-8.125s10.812-3.291,14.906-2.645C110.917,166.028,128.667,172.153,131.542,180.527z"/>
<path fill="none" stroke="#FFFFFF" stroke-linecap="round" stroke-linejoin="round" stroke-miterlimit="10" d="M93.917,168.903
	c0,0,2.625,21.624,7.5,27.124"/>
<path fill="none" stroke="#FFFFFF" stroke-linecap="round" stroke-linejoin="round" stroke-miterlimit="10" d="M131.651,181.277
	c0,0,4.017,29.5,8.017,31.75"/>
<path fill="none" stroke="#FFFFFF" stroke-linecap="round" stroke-linejoin="round" stroke-miterlimit="10" d="M133.917,218.402
	c0,0,2.375-4,16.25-3.5s40.124-1.875,40.124-1.875"/>
<path fill="none" stroke="#FFFFFF" stroke-linecap="round" stroke-linejoin="round" stroke-miterlimit="10" d="M189.567,137.278
	c0,0,14.225,20.709,17.6,28.105c3.375,7.395,8.25,20.519,8.25,20.519"/>
<path fill="none" stroke="#FFFFFF" stroke-linecap="round" stroke-linejoin="round" stroke-miterlimit="10" d="M213.079,147.604
	c0,0,20.588,31.424,23.463,44.923c2.625-0.75,12.125-1.875,14.25-2"/>
<path fill="none" stroke="#FFFFFF" stroke-linecap="round" stroke-linejoin="round" stroke-miterlimit="10" d="M111.495,131.438
	c0,0,11.065,6.841,11.744,10.091"/>
<path fill="none" stroke="#FFFFFF" stroke-linecap="round" stroke-linejoin="round" stroke-miterlimit="10" d="M119.578,143.367
	c0,0,3.107,1.286,3.661,3.036"/>
<path fill="none" stroke="#FFFFFF" stroke-linecap="round" stroke-linejoin="round" stroke-miterlimit="10" d="M113.542,157.528
	c0,0,2.5,4.551,4.25,4.963"/>
<path fill="none" stroke="#FFFFFF" stroke-linecap="round" stroke-linejoin="round" stroke-miterlimit="10" d="M126.792,149.903
	c0,0,1.842,14,4.858,17.125s2.783,12.75,1.392,13.499"/>
<path fill="none" stroke="#FFFFFF" stroke-linecap="round" stroke-linejoin="round" stroke-miterlimit="10" d="M145.042,160.778
	c0,0-3.625,16.875-6.125,20.499"/>
<path fill="none" stroke="#FFFFFF" stroke-linecap="round" stroke-linejoin="round" stroke-miterlimit="10" d="M191.083,214.902
	c0,0-1.291-6.5,1.459-10.625s7.898-12.5,9.949-13s11.301-0.625,12.926-0.625s5.5,1.875,5.25,5.375s1.523,11.5,0.012,11
	s-2.012-3-3.762-5.375s-7.125-6.375-9.375-6.5s-5.625-0.875-6.5,0.125s-3,3.447-3.875,3.375"/>
<path fill="none" stroke="#FFFFFF" stroke-linecap="round" stroke-linejoin="round" stroke-miterlimit="10" d="M194.292,202.777
	c0,0,2.75-3.125,4.625-2.75s11.25,3.625,12.25,4.375s4.25,4.875,4.25,4.875s3.201,2.484,4,0c0.801-2.484-0.447-4.088-0.447-4.088"/>
<path fill="none" stroke="#FFFFFF" stroke-linecap="round" stroke-linejoin="round" stroke-miterlimit="10" d="M195.292,206.777
	c0,0,3.75-1.75,7.625,0s6.625,3,8.125,2.875c1.529,0.055,4.375-0.375,3.211-1.822"/>
<path fill="none" stroke="#FFFFFF" stroke-linecap="round" stroke-linejoin="round" stroke-miterlimit="10" d="M198.542,208.902
	c0,0,11.609,6.125,6.367,11.125s-4.742,3.5-8.117,4.25s-16.624,6.25-18.124,7.25s-7.875,3.5-9.75,3.75s-12.75,5.125-13.75,5.5
	s-3.75,1.75-7.625-1s-8.125-4.125-9.75-4.5s-23.625-6.125-26.875-14c1-3.25,2.625-4.395-0.125-13.822c-0.875-3.178,0-7.459,0-7.459
	s3-0.094,4,1.281s3.25,4.625,4-0.25s-4-8.5-5.25-8.5s-8.5,0-11.5,3.5"/>
<path fill="none" stroke="#FFFFFF" stroke-linecap="round" stroke-linejoin="round" stroke-miterlimit="10" d="M203.053,221.738
	c0,0,18.617-2.98,18.242-13.908"/>
<path fill="none" stroke="#FFFFFF" stroke-linecap="round" stroke-linejoin="round" stroke-miterlimit="10" d="M221.295,195.027
	c0,0,3.371,0,7.496,6.125s6.625,8.23,8.75,6.678s-0.5-8.803-2-10.053s-7-10-14.75-11.125s-11.545,0.875-12.084,3.5"/>
<path fill="none" stroke="#FFFFFF" stroke-miterlimit="10" d="M160.042,177.321c7.513-0.35,14.5-6.5,11.461-14.83
	c-3.039-8.328-12.836-6.504-12.836-6.504s-8.958,2.664-8.958,10.582S152.876,177.653,160.042,177.321z"/>
<path fill="none" stroke="#FFFFFF" stroke-linecap="round" stroke-linejoin="round" stroke-miterlimit="10" d="M170.17,157.528
	c0,0,3.359-7.209,10.949-5.375c7.59,1.834,10.471,11.521,8.447,14.428c-2.025,2.906-2.705,5.74-8.447,5.906
	c-5.744,0.166-8.888-3.584-8.888-3.584"/>
<path fill="none" stroke="#FFFFFF" stroke-linecap="round" stroke-linejoin="round" stroke-miterlimit="10" d="M191.083,165.384
	c0,0,16.627,6.438,8.959,18.603"/>
<path fill="none" stroke="#FFFFFF" stroke-linecap="round" stroke-linejoin="round" stroke-miterlimit="10" d="M149.709,173.653
	c0,0-9,17.665,7.5,21.499"/>
<path fill="none" stroke="#FFFFFF" stroke-linecap="round" stroke-linejoin="round" stroke-miterlimit="10" d="M189.567,190.652
	c0,0-14.335,2.166-16.43,3.5"/>
<path fill="none" stroke="#FFFFFF" stroke-linecap="round" stroke-linejoin="round" stroke-miterlimit="10" d="M162.864,199.32
	c0,0-0.988,2.186-2.821,0.676s-3-6.51,0-8.344c3-1.832,8.589-1.5,10.128,0s3.206,7.334-0.794,5.5
	C169.209,198.152,167.517,203.166,162.864,199.32z"/>
<path fill="none" stroke="#FFFFFF" stroke-linecap="round" stroke-linejoin="round" stroke-miterlimit="10" d="M192.479,191.277
	c0,0-3.695-1-2.285-4.688s5.16-3.875,7.16-3.125s4,2.562,4.062,3.312s-0.688,1.688-1.562,1.188c0.688,1.5-1,3.688-5.062,2.688
	C194.917,191.465,193.917,192.84,192.479,191.277z"/>
<polyline fill="none" stroke="#FFFFFF" stroke-linecap="round" stroke-linejoin="round" stroke-miterlimit="10" points="
	172.232,186.332 179.292,189.402 183.204,183.111 "/>
<path fill="none" stroke="#FFFFFF" stroke-linecap="round" stroke-linejoin="round" stroke-miterlimit="10" d="M191.542,172.493
	c0,0,0.248-0.018,0.621-0.006c1.121,0.039,3.375,0.346,3.484,2.197c0.145,2.469,0.25,3.719-2.053,4.094s-3.754-0.953-4.027-3.289
	c-0.275-2.336,1.383-3.057,2.223-3.014"/>
<path fill="none" stroke="#FFFFFF" stroke-linecap="round" stroke-linejoin="round" stroke-miterlimit="10" d="M155.917,180.527
	c0,0,4.25,0.418,4.25,3.459s-1.125,3.463-3.375,3.564s-3.125-0.73-3.312-3.564S154.667,181.027,155.917,180.527z"/>
<path fill="none" stroke="#FFFFFF" stroke-linecap="round" stroke-linejoin="round" stroke-miterlimit="10" d="M165.034,162.175
	c0,0,3.016-0.301,3.137,1.777c0.122,2.076,0.247,3.451-2.378,3.826s-3.875-1.119-3.688-2.809
	C162.292,163.278,164.142,162.165,165.034,162.175z"/>
<path fill="none" stroke="#FFFFFF" stroke-linecap="round" stroke-linejoin="round" stroke-miterlimit="10" d="M176.417,160.011
	c0,0,2.75,0.393,3,1.58s0.125,3.438-2.375,3.625s-2.5-1.65-2.625-2.48C174.292,161.903,175.167,160.616,176.417,160.011z"/>
<polyline fill="none" stroke="#FFFFFF" stroke-linecap="round" stroke-linejoin="round" stroke-miterlimit="10" points="
	162.655,164.101 163.319,166.853 163.466,163.364 164.302,167.442 164.302,162.774 165.155,167.442 165.285,162.479 
	166.047,167.442 166.317,162.62 167.079,167.026 167.391,162.62 167.988,165.896 "/>
<polyline fill="none" stroke="#FFFFFF" stroke-linecap="round" stroke-linejoin="round" stroke-miterlimit="10" points="
	175.116,161.692 175.607,164.444 175.754,160.954 176.393,164.839 176.393,160.438 177.131,164.999 177.352,160.538 
	177.819,164.616 178.237,160.856 178.679,164.198 179.024,161.3 "/>
<path fill="none" stroke="#FFFFFF" stroke-linecap="round" stroke-linejoin="round" stroke-miterlimit="10" d="M218.749,215.715
	c0,0,22.896-3.203,25.104-3.516c0,0,19.857-71.464,22.857-74.921c3.666-0.791,119.332,2.043,120.832,4.043
	s-36.166,81.667-36.666,82.999c0.166,1.834,0.166,2.834,0.166,2.834s-108.666,16.5-111,16.5
	c-3.332-0.834-59.859-12.904-59.859-12.904"/>
<path fill="none" stroke="#FFFFFF" stroke-linecap="round" stroke-linejoin="round" stroke-miterlimit="10" d="M387.375,142.593
	l-116.334-2.396l-31.332,98.124c-3.668,0.334-52.705-10.502-52.705-10.502"/>
<line fill="none" stroke="#FFFFFF" stroke-linecap="round" stroke-linejoin="round" stroke-miterlimit="10" x1="239.875" y1="239.654" x2="240.042" y2="243.654"/>
<line fill="none" stroke="#FFFFFF" stroke-linecap="round" stroke-linejoin="round" stroke-miterlimit="10" x1="240.042" y1="238.986" x2="350.875" y2="224.32"/>
<path fill="none" stroke="#FFFFFF" stroke-linecap="round" stroke-linejoin="round" stroke-miterlimit="10" d="M318.375,170.067
	h2.834l0.666,4.617h3.666c1.334-0.363,3.834-2.309,3.834-2.309l2.666,1.277l-4.832,4.502c0,0-1.834,9.522-8.334,8.177
	s-3.166-10.116-1.166-11.647C318.209,172.321,318.375,170.067,318.375,170.067z"/>
<path fill="none" stroke="#FFFFFF" stroke-linecap="round" stroke-linejoin="round" stroke-miterlimit="10" d="M196.573,225.82
	c0,0,3.51,1.498,5.49,0.832c1.979-0.666,38.979-8.25,38.979-8.25"/>
<path fill="none" stroke="#FFFFFF" stroke-linecap="round" stroke-linejoin="round" stroke-miterlimit="10" d="M236.875,228.486
	c0,0-10.332,3.166-9.5,4.166c0.834,1,8.334,1.834,8.334,1.834h1.166l6.977-22.287"/>
<line fill="none" stroke="#FFFFFF" stroke-linecap="round" stroke-linejoin="round" stroke-miterlimit="10" x1="236.875" y1="234.486" x2="236.112" y2="237.92"/>
<path fill="none" stroke="#FFFFFF" stroke-linecap="round" stroke-linejoin="round" stroke-miterlimit="10" d="M227.329,225.986
	c0,0-12.537,1.834-11.912,3.5s4.959,2.168,6.793,2.168c1.832-0.002,9.727-2.834,9.727-2.834S231.114,226.82,227.329,225.986z"/>
<path fill="none" stroke="#FFFFFF" stroke-linecap="round" stroke-linejoin="round" stroke-miterlimit="10" d="M224.875,222.613
	c0,0,5.287,3.873,7.061,3.373s8.656-3.373,8.656-3.373"/>
<path fill="none" stroke="#FFFFFF" stroke-linecap="round" stroke-linejoin="round" stroke-miterlimit="10" d="M239.875,224.32
	c0,0-4.236,0.756-4.285,1.711s2.75,1.621,2.75,1.621"/>
<path fill="none" stroke="#FFFFFF" stroke-linecap="round" stroke-linejoin="round" stroke-miterlimit="10" d="M203.053,226.824
	c0,0,5.76,3.164,9.125,1.996c3.363-1.168,11.682-1.834,12.697-3.668s-2.672-2.855-2.672-2.855"/>
<line fill="none" stroke="#FFFFFF" stroke-linecap="round" stroke-linejoin="round" stroke-miterlimit="10" x1="196.792" y1="224.277" x2="241.042" y2="214.785"/>
<path fill="none" stroke="#FFFFFF" stroke-linecap="round" stroke-linejoin="round" stroke-miterlimit="10" d="M101.417,196.684
	c0,0-9.23,10.639-6.069,20.893c-2.226,0.068-28.83,8.85-19.919,31.684c-1.276,1.055-6.077,3.631,2.002,7.963
	c2.108,2.342,7.495,7.729,11.71,1.873c4.684,0.469,12.88,0.234,15.808-6.088"/>
<path fill="none" stroke="#FFFFFF" stroke-linecap="round" stroke-linejoin="round" stroke-miterlimit="10" d="M77.237,229.209
	c0,0-8.821-3.955-13.973,4.477c-3.513-0.117-5.503,0.703-8.197-1.873c-0.351,3.748,0.351,6.592,6.674,6.516
	c1.288,3.438,9.417,9.627,13.198,9.576"/>
<path fill="none" stroke="#FFFFFF" stroke-linecap="round" stroke-linejoin="round" stroke-miterlimit="10" d="M109.048,199.996
	c0,0-11.124,2.074-8.782,12.145c1.522,4.449,2.147,7.26,1.776,8.314"/>
<path fill="none" stroke="#FFFFFF" stroke-linecap="round" stroke-linejoin="round" stroke-miterlimit="10" d="M89.376,239.307
	c0,0,5.972-5.07,5.972-5.738c-0.272,0.021-0.635,0.117-1.048,0.279C92.409,234.59,89.472,236.713,89.376,239.307z"/>
<line fill="none" stroke="#FFFFFF" stroke-linecap="round" stroke-linejoin="round" stroke-miterlimit="10" x1="94.464" y1="234.277" x2="90.277" y2="237.762"/>
<path fill="none" stroke="#FFFFFF" stroke-linecap="round" stroke-linejoin="round" stroke-miterlimit="10" d="M75.792,249.152
	c0,0,3.562-4.125,6-0.812s0.188,6.938-1.25,7.75s-2.782,1.318-3.306,1.025"/>
<path fill="none" stroke="#FFFFFF" stroke-linecap="round" stroke-linejoin="round" stroke-miterlimit="10" d="M108.105,239.307
	c0,0.408,2.188,11.908,0,15.971S89.82,262.84,88.9,263.652s-0.795,2.188-0.795,2.188s-30.312-8.938-56.688,1.562"/>
<path fill="none" stroke="#FFFFFF" stroke-linecap="round" stroke-linejoin="round" stroke-miterlimit="10" d="M117.667,229.209
	c0,0,6.5,4.67,3.625,9.119s-9.75,9.574-10.375,11.449"/>
<path fill="none" stroke="#FFFFFF" stroke-linecap="round" stroke-linejoin="round" stroke-miterlimit="10" d="M124.542,240.402
	c0,0-2.125,5.375-7.5,9.375"/>
<path fill="none" stroke="#FFFFFF" stroke-linecap="round" stroke-linejoin="round" stroke-miterlimit="10" d="M108.042,204.527
	c0,0-5.375,2.375-4.75,8.5"/>
<path fill="none" stroke="#FFFFFF" stroke-linecap="round" stroke-linejoin="round" stroke-miterlimit="10" d="M62.667,236.438
	c0,0,7.875,0.59,9.25,3.965"/>
<path fill="none" stroke="#FFFFFF" stroke-linecap="round" stroke-linejoin="round" stroke-miterlimit="10" d="M77.917,246.152
	c0,0-3.76-0.877-3.51,0C75.542,246.527,77.917,246.152,77.917,246.152z"/>
<path fill="none" stroke="#FFFFFF" stroke-linecap="round" stroke-linejoin="round" stroke-miterlimit="10" d="M87.252,260.969
	c0,0,2.592,2.252,4.033,1.816"/>
<path fill="none" stroke="#FFFFFF" stroke-linecap="round" stroke-linejoin="round" stroke-miterlimit="10" d="M152.234,241.453
	c0,0-17.225,0.824-20.583,3.637s-20.233,13.188-23.608,14.188s-10.41,1.549-11.5,1.895"/>
<path fill="none" stroke="#FFFFFF" stroke-linecap="round" stroke-linejoin="round" stroke-miterlimit="10" d="M97.667,199.996
	c-3.125-2.656-18.125-2.594-25.75-2.67s-12.375-2.424-16.924-4.799s-26.201-6.875-26.201-6.875s0,0-0.25-2.541
	c-5.25-9.04-4.75-32.708-4.75-35.833s-10-19.625-10.75-22s1.25-9.125,0.25-15.717c-5-4.092-4.5-13.908-3.75-21.875
	s70.731-4.59,70.731-4.59"/>
<path fill="none" stroke="#FFFFFF" stroke-linecap="round" stroke-linejoin="round" stroke-miterlimit="10" d="M196.792,90.055
	c0,0,38.371-2.124,47.061,6.737c1.439,3.861-4.715,13.791-5.512,15.201c-1.049-1.59-1.846-5.94-1.846-5.94
	s3.898,13.151,4.098,15.501s4.699,0.262,8.699,41.182c1.25,4.418,5.387,11.484,4.215,15.529"/>
<line fill="none" stroke="#FFFFFF" stroke-linecap="round" stroke-linejoin="round" stroke-miterlimit="10" x1="4.292" y1="62.797" x2="80.49" y2="64.023"/>
<line fill="none" stroke="#FFFFFF" stroke-linecap="round" stroke-linejoin="round" stroke-miterlimit="10" x1="192.624" y1="66.153" x2="338.292" y2="68.637"/>
<path fill="none" stroke="#FFFFFF" stroke-linecap="round" stroke-linejoin="round" stroke-miterlimit="10" d="M242.875,103.117
	c0,0-16.035-15.865-43.334-9.443"/>
<path fill="none" stroke="#FFFFFF" stroke-linecap="round" stroke-linejoin="round" stroke-miterlimit="10" d="M240.042,106.589
	c0,0-9.814-14.916-39.625-9.796"/>
<path fill="none" stroke="#FFFFFF" stroke-linecap="round" stroke-linejoin="round" stroke-miterlimit="10" d="M239.834,118.006
	c0,0-12.418-10.138-19.605-10.62s-25.938-2.105-25.938-2.105"/>
<path fill="none" stroke="#FFFFFF" stroke-linecap="round" stroke-linejoin="round" stroke-miterlimit="10" d="M240.592,121.554
	c0,0-15.52-11.66-21.785-11.53s-24.516-2.638-24.516-2.638"/>
<path fill="none" stroke="#FFFFFF" stroke-linecap="round" stroke-linejoin="round" stroke-miterlimit="10" d="M243.852,129.278
	c0,0-8.561-3.794-13.561-3.459s-24.023-0.299-24.023-0.299"/>
<path fill="none" stroke="#FFFFFF" stroke-linecap="round" stroke-linejoin="round" stroke-miterlimit="10" d="M245.227,134.048
	c0,0-10.686-4.202-16.686-4.048s-19.625,0-19.625,0"/>
<path fill="none" stroke="#FFFFFF" stroke-linecap="round" stroke-linejoin="round" stroke-miterlimit="10" d="M247.854,149.903
	c0,0-7.062-5.182-14.062-5.091s-18.4,0.073-18.4,0.073"/>
<path fill="none" stroke="#FFFFFF" stroke-linecap="round" stroke-linejoin="round" stroke-miterlimit="10" d="M247.854,153.06
	c0,0-8.812-5.004-14.062-5.455s-18.4,1.249-18.4,1.249"/>
<path fill="none" stroke="#FFFFFF" stroke-linecap="round" stroke-linejoin="round" stroke-miterlimit="10" d="M249.792,167.837
	c0,0-4.898-3.838-9.199-3.885c-4.301-0.049-15.717,1.264-15.717,1.264"/>
<path fill="none" stroke="#FFFFFF" stroke-linecap="round" stroke-linejoin="round" stroke-miterlimit="10" d="M249.792,172.474
	c0,0-3.75-4.703-9.75-4.637s-14.096,1.066-14.096,1.066"/>
<path fill="none" stroke="#FFFFFF" stroke-linecap="round" stroke-linejoin="round" stroke-miterlimit="10" d="M232.735,180.527
	c0,0,7.557-0.375,12.492,0s4.564,5.375,4.564,5.375s-0.375,2.75-1.938,0s-2.895-3.082-4.979-2.791s-9.275,0.932-9.275,0.932"/>
<path fill="none" stroke="#FFFFFF" stroke-linecap="round" stroke-linejoin="round" stroke-miterlimit="10" d="M79.729,88.699
	c0,0-19.536-0.542-24.736-0.669s-26.701,0.16-30.951,1.392s-13.796,6.986-14.648,11.734"/>
<path fill="none" stroke="#FFFFFF" stroke-linecap="round" stroke-linejoin="round" stroke-miterlimit="10" d="M78.81,91.29
	c0,0-45.018-2.114-50.518,0s-16.434,7.489-18.217,13.051"/>
<path fill="none" stroke="#FFFFFF" stroke-linecap="round" stroke-linejoin="round" stroke-miterlimit="10" d="M71.905,102.095
	c0,0-17.862-0.234-21.612,1.787s-8.75,2.642-11.25,2.707s-18.5,0.391-24.25,9.353"/>
<path fill="none" stroke="#FFFFFF" stroke-linecap="round" stroke-linejoin="round" stroke-miterlimit="10" d="M69.055,106.589
	c0,0-13.763-1.035-18.263,1.515s-16.5,2.586-18.25,2.318s-10.25,0.783-17.75,11.132"/>
<path fill="none" stroke="#FFFFFF" stroke-linecap="round" stroke-linejoin="round" stroke-miterlimit="10" d="M58.292,121.554
	c0,0-2,1.849-7.75,2.349s-21.5,0.234-24.75,1.617s-9.802,5.508-9.802,5.508"/>
<path fill="none" stroke="#FFFFFF" stroke-linecap="round" stroke-linejoin="round" stroke-miterlimit="10" d="M59.361,123.903
	c0,0-3.069,3.75-13.819,3.5s-24.866,3.008-27.058,6.879"/>
<path fill="none" stroke="#FFFFFF" stroke-linecap="round" stroke-linejoin="round" stroke-miterlimit="10" d="M67.292,141.528
	c0,0-9.349,0.326-12.299,2.101s-8.938,1.341-13.069,1.183s-14.381,1.123-17.131,5.482"/>
<path fill="none" stroke="#FFFFFF" stroke-linecap="round" stroke-linejoin="round" stroke-miterlimit="10" d="M69.055,144.812
	c0,0-7.861,1.249-14.062,2.545s-9.701-0.802-14.201,0.247s-11,2.422-16,6.736"/>
<path fill="none" stroke="#FFFFFF" stroke-linecap="round" stroke-linejoin="round" stroke-miterlimit="10" d="M78.81,168.903
	c0,0-13.018,2.105-20.518-2.322s-33.474,3.408-33.007,5.893"/>
<path fill="none" stroke="#FFFFFF" stroke-linecap="round" stroke-linejoin="round" stroke-miterlimit="10" d="M75.43,173.653
	c0,0-11.118-0.748-15.127-3.498c-4.01-2.752-8.747-2.336-13.378-1.293c-4.631,1.041-19.881,6.627-19.881,6.627"/>
<path fill="none" stroke="#FFFFFF" stroke-linecap="round" stroke-linejoin="round" stroke-miterlimit="10" d="M93.824,187.027
	c0,0-10.032,0.234-15.907-0.695s-22.37-1.189-25.873,4.066"/>
<path fill="none" stroke="#FFFFFF" stroke-linecap="round" stroke-linejoin="round" stroke-miterlimit="10" d="M98.591,190.4
	c0,0-17.342,1.002-24.195,0.252s-17.19,0.91-17.603,1.75"/>
<path fill="none" stroke="#FFFFFF" stroke-linecap="round" stroke-linejoin="round" stroke-miterlimit="10" d="M241.266,120.204
	c0,0,33.822,0.45,45.924,5.075"/>
<path fill="none" stroke="#FFFFFF" stroke-linecap="round" stroke-linejoin="round" stroke-miterlimit="10" d="M346.542,137.278
	c0,0,0-16.941-2.25-21.158"/>
<path fill="none" stroke="#FFFFFF" stroke-linecap="round" stroke-linejoin="round" stroke-miterlimit="10" d="M346.542,119.528
	c0,0,0.25-9.975,0-11.425c-1.5-0.45-36.25-1.569-43.75,2.49s-26.445,10.206-28,10.96"/>
<path fill="none" stroke="#FFFFFF" stroke-linecap="round" stroke-linejoin="round" stroke-miterlimit="10" d="M312.875,127.012
	c0,0-13.5,6.391-17.416,2.266"/>
<path fill="none" stroke="#FFFFFF" stroke-linecap="round" stroke-linejoin="round" stroke-miterlimit="10" d="M173.497,238.986
	c0,0,46.378-0.5,84.378,40.5"/>
<path fill="none" stroke="#FFFFFF" stroke-linecap="round" stroke-linejoin="round" stroke-miterlimit="10" d="M187.004,261.904
	c0,0-22.584,2.248-30.189,15.582"/>
<path fill="none" stroke="#FFFFFF" stroke-linecap="round" stroke-linejoin="round" stroke-miterlimit="10" d="M165.034,255.402
	c0,0-26.325,4.084-38.241,20.418c-14.583,12-39.417,33-70,32s-44.25,13.332-44.25,13.332"/>
<path fill="none" stroke="#FFFFFF" stroke-linecap="round" stroke-linejoin="round" stroke-miterlimit="10" d="M59.361,267.402
	c0,0,24.515,5.418,37.181,25.418"/>
<path fill="none" stroke="#FFFFFF" stroke-linecap="round" stroke-linejoin="round" stroke-miterlimit="10" d="M107.429,299.486
	c0,0,27.43-1,44.271,25.666"/>
<path fill="none" stroke="#FFFFFF" stroke-linecap="round" stroke-linejoin="round" stroke-miterlimit="10" d="M154.286,325.152
	c0,0,30.753-5.004,38.337-12.836c7.586-7.83,15.252-29.164,69.918-28.164"/>
<path fill="none" stroke="#FFFFFF" stroke-linecap="round" stroke-linejoin="round" stroke-miterlimit="10" d="M274.792,253.355
	c0,0,30.75-1.166,45.418,7.816c14.666,8.98,20,16.232,30.666,18.939"/>
<path fill="none" stroke="#FFFFFF" stroke-linecap="round" stroke-linejoin="round" stroke-miterlimit="10" d="M360.069,204.527
	c0,0,30.473,5.209,38.141,4.25c7.666-0.957,26.998,4.543,39.666,9.625c12.666,5.084,21.334,8.092,27.666,8.422"/>
<path fill="none" stroke="#FFFFFF" stroke-linecap="round" stroke-linejoin="round" stroke-miterlimit="10" d="M422.303,213.027
	c0,0-14.428,1.396-19.094,7.428"/>
<path fill="none" stroke="#FFFFFF" stroke-linecap="round" stroke-linejoin="round" stroke-miterlimit="10" d="M346.542,233.568
	c0,0,18.334-3.082,27.668-5.916c9.332-2.832,42.998-1.965,58.666,10.768"/>
<path fill="none" stroke="#FFFFFF" stroke-linecap="round" stroke-linejoin="round" stroke-miterlimit="10" d="M380.542,229.209
	c0,0-16.947,10.945-20.473,14.445c-3.527,3.498-11.443,7.113-14.652,8.473c-3.207,1.359-22.207,4.453-24.541,5.072"/>
<path fill="none" stroke="#FFFFFF" stroke-linecap="round" stroke-linejoin="round" stroke-miterlimit="10" d="M308.875,259.236
	c0,0-23,3.336-28.666,10.459c-5.668,7.125-12.629,12.457-15.98,12.457c0,0,8.664,5,19.654,8c10.992,3,28.686,24.334,31.172,29"/>
<path fill="none" stroke="#FFFFFF" stroke-linecap="round" stroke-linejoin="round" stroke-miterlimit="10" d="M96.542,200.752
	c0,0-10.917-1.912-18.625-0.756s-20.655-2.51-26.682-4.844c-6.027-2.332-35.36-10.447-44.36-5.891
	c6.333,0.891,28.039,3.953,37.686,7.422s18.098,6.053,28.373,6.094c10.274,0.043,22.483,0,22.483,0"/>
<path fill="none" stroke="#FFFFFF" stroke-linecap="round" stroke-linejoin="round" stroke-miterlimit="10" d="M82.873,222.297
	c0,0-22.026-3.881-23.511-7.512c1.181,4.035,3.306,4.746,3.306,4.746s13.919,6.727,17.062,4.746"/>
<path fill="none" stroke="#FFFFFF" stroke-linecap="round" stroke-linejoin="round" stroke-miterlimit="10" d="M58.292,218.402
	c-1.583-6.75-18.083-18.406-18.083-18.406"/>
<path fill="none" stroke="#FFFFFF" stroke-linecap="round" stroke-linejoin="round" stroke-miterlimit="10" d="M56.792,207.83
	c0,0,5.875,3.99,5.875,7.846"/>
<path fill="none" stroke="#FFFFFF" stroke-linecap="round" stroke-linejoin="round" stroke-miterlimit="10" d="M33.876,234.486
	c0,0,19.229,11.201,26.426,10.604"/>
<path fill="none" stroke="#FFFFFF" stroke-linecap="round" stroke-linejoin="round" stroke-miterlimit="10" d="M1.32,204.078
	c0,0,34.709-7.99,55.472,12.912"/>
<path fill="none" stroke="#FFFFFF" stroke-linecap="round" stroke-linejoin="round" stroke-miterlimit="10" d="M61.32,232.432
	c-0.075-0.225-32.096-24.24-60-13.615"/>
<path fill="none" stroke="#FFFFFF" stroke-linecap="round" stroke-linejoin="round" stroke-miterlimit="10" d="M54.14,231.684
	c0,0-28.732-19.002-53.157-10.324"/>
<path fill="none" stroke="#FFFFFF" stroke-linecap="round" stroke-linejoin="round" stroke-miterlimit="10" d="M72.85,254.727
	c0,0-14.893-5.021-21.701-7.674c-6.808-2.65-19.826-8.105-25.96-8.633s-24.205-0.326-24.205-0.326"/>
<path fill="none" stroke="#FFFFFF" stroke-linecap="round" stroke-linejoin="round" stroke-miterlimit="10" d="M77.558,258.691
	c0,0-19.806-4.414-28.307-7.258c-8.501-2.842-18.227-8.977-22.042-9.426s-26.225-0.299-26.225-0.299"/>
<path fill="none" stroke="#FFFFFF" stroke-linecap="round" stroke-linejoin="round" stroke-miterlimit="10" d="M1.32,257.906
	c3.438-1.309,23.569-2.73,28.506-2.504c4.938,0.229,19.676,0.969,26.035,2.914s21.172,2.096,22.594,2.096h1.496l2.921,1.795h2.466
	l1.914-0.473l1.008,0.553l1.008,0.553l-2.017,2.211l1.079-2.211l-2.02,2.211l0.941-2.545l-1.689,2.545l0.823-2.545l-1.785,2.457
	l0.812-2.123l-1.271,1.537l0.449-1.537l-1.272,1.387l0.374-1.387l-0.82,1.164v-1.164l-1.063,1.537l0.537-1.945l-1.197,1.422
	l0.523-1.949l-1.474,2.17l0.726-2.34l-1.592,1.895l0.993-2.66l-1.571,2.361l0.578-2.361l-1.381,2.285l0.579-2.285l-1.293,1.871
	l0.681-1.871l-1.482,1.871l0.374-1.871l-1.271,1.871l0.619-1.871l-1.442,1.871l0.599-1.871l-1.272,1.871l0.354-1.871l-1.546,1.871
	l0.668-1.871l-1.601,1.613l0.932-1.613l-1.733,1.314l0.801-1.709l-1.67,1.783l0.502-1.783l-1.497,1.633l0.374-1.633l-1.293,2.006
	l0.545-2.006l-1.122,1.33l0.374-1.33l-1.347,1.33l0.508-1.33l-1.177,1.16v-1.52l-0.752,1.52v-1.52l-0.748,1.52l-0.075-1.52
	l-0.749,1.689l-0.075-1.689l-0.673,1.52l-0.075-1.52l-0.673,1.689l-0.075-1.689l-0.599,1.52l-0.302-1.52l-0.521,1.52l-0.075-2.07
	l-0.422,2.07l-0.572-2.145l-0.369,2.145l-0.357-2.492l-0.449,2.492l-0.263-2.492l-0.485,2.492l-0.225-2.492l-7.406-1.598
	l-4.265-0.445l-5.703-0.527l-13.749-0.6l-16.684,1.127l-8.793,1.492L0.5,259.242l9.202-1.225l16.683-1.346l13.824,0.822
	l10.042,0.748l6.542,1.646l0.491,0.686l-7.107-1.332l-9.967-1.074l-13.824-0.6l-16.534,1.123L0.5,260.215v0.754l9.427-1.727
	l16.458-1.074l13.824,0.523l9.967,1.197l7.107,1.08"/>
<path fill="none" stroke="#FFFFFF" stroke-linecap="round" stroke-linejoin="round" stroke-miterlimit="10" d="M57.283,261.904
	c0,0-10.099-2.166-21.247-2.615C24.889,258.842,0.5,261.734,0.5,261.734"/>
<polyline fill="none" stroke="#FFFFFF" stroke-linecap="round" stroke-linejoin="round" stroke-miterlimit="10" points="
	30.725,258.691 24.366,258.691 10.675,259.889 3.867,260.969 "/>
<polyline fill="none" stroke="#FFFFFF" stroke-linecap="round" stroke-linejoin="round" stroke-miterlimit="10" points="
	73.443,255.379 77.558,257.943 72.471,255.379 75.792,257.943 49.25,250.537 28.48,241.686 0.983,240.885 0.983,240.402 
	28.406,240.885 49.578,249.861 72.85,256.295 71.917,255.379 50.026,249.172 71.117,254.139 50.326,248.439 57.283,249.787 
	50.55,247.467 28.892,239.307 1.32,238.715 1.32,239.307 28.406,239.801 49.578,247.904 49.25,248.664 28.892,240.402 
	0.983,239.801 "/>
<polyline fill="none" stroke="#FFFFFF" stroke-linecap="round" stroke-linejoin="round" stroke-miterlimit="10" points="
	61.32,232.877 58.615,232.877 57.759,232.619 60.584,232.191 56.792,232.432 59.361,231.506 56.046,232.02 58.683,230.949 
	55.318,231.463 57.416,230.266 54.547,231.336 56.603,229.709 53.862,230.863 55.704,229.066 53.049,230.479 45.599,226.154 
	39.477,223.5 30.999,220.717 24.876,219.09 14.858,218.402 8.393,218.748 0.983,220.461 0.983,219.475 3.726,219.09 8.093,217.977 
	14.772,217.678 24.919,218.402 31.152,219.945 39.733,222.857 45.771,225.387 53.092,229.75 54.719,228.723 46.156,224.27 
	40.209,221.531 31.77,218.791 25.133,217.334 14.815,216.691 3.469,218.402 16.185,217.207 25.219,217.762 31.684,219.518 
	40.209,222.172 46.07,224.783 53.22,228.938 "/>
<polyline fill="none" stroke="#FFFFFF" stroke-linecap="round" stroke-linejoin="round" stroke-miterlimit="10" points="
	82.873,222.82 80.709,223.82 77.917,223.82 74.396,223.32 69.792,221.736 64.376,219.713 61.959,218.402 60.626,216.691 
	63.876,218.736 68.376,220.455 73.959,222.486 77.692,223.07 80.459,223.07 81.542,222.736 76.792,222.236 73.542,221.486 
	69.126,220.256 64.093,217.654 74.396,221.154 78.292,221.904 "/>
<path fill="none" stroke="#FFFFFF" stroke-linecap="round" stroke-linejoin="round" stroke-miterlimit="10" d="M57.459,218.402
	l-1.917-3.617l-3.833-3.031l-5.25-3.434l-5.583-2.5l-7-2.25l-6.833-1.334l-7.833-0.5h-7.833l-8.167,1.061l-2.226,0.439v-0.658
	l10.059-1.674h8.083l7.917,0.582l7.167,1.311l7.083,2.273l5.5,2.76l8.201,5.49l-7.904-6.166l-5.38-2.711l-7.25-2.373l-7.417-1.166
	l-7.917-0.908h-8.167l-9.976,1.74v-0.984c0,0,31.766-9.195,54.01,9.631"/>
<polyline fill="none" stroke="#FFFFFF" stroke-linecap="round" stroke-linejoin="round" stroke-miterlimit="10" points="
	52.045,209.785 45.876,205.32 41.542,203.404 37.876,201.986 27.876,199.996 17.709,199.154 6.876,199.996 0.983,201.07 "/>
<polyline fill="none" stroke="#FFFFFF" stroke-linecap="round" stroke-linejoin="round" stroke-miterlimit="10" points="
	22.209,199.154 27.876,199.154 36.401,201.693 41.236,203.285 47.089,206.197 "/>
<path fill="none" stroke="#FFFFFF" stroke-linecap="round" stroke-linejoin="round" stroke-miterlimit="10" d="M28.376,185.805
	c0,0-23.528-2.748-27.056,2.092"/>
<polyline fill="none" stroke="#FFFFFF" stroke-linecap="round" stroke-linejoin="round" stroke-miterlimit="10" points="
	97.667,201.07 96.542,202.797 96.542,201.07 95.792,201.934 69.055,201.934 63.376,201.486 54.876,199.154 48.209,197.07 
	35.792,193.57 24.209,191.4 9.07,189.07 13.042,189.07 20.376,190.398 27.562,191.4 34.209,192.527 39.042,193.904 43.959,195.346 
	51.236,197.32 59.73,199.996 66.126,201.154 95.709,201.236 85.986,199.996 87.459,200.82 85.126,199.996 76.789,200.57 
	85.986,200.654 65.626,200.404 59.73,199.154 51.709,196.684 34.649,191.904 16.876,189.07 11.459,188.102 19.709,188.57 
	29.056,190.398 35.626,191.4 43.126,193.404 51.236,195.736 66.292,199.996 "/>
<polyline fill="none" stroke="#FFFFFF" stroke-linecap="round" stroke-linejoin="round" stroke-miterlimit="10" points="
	94.585,187.027 96.542,187.896 97.667,189.709 96.126,188.369 93.917,187.445 85.076,187.896 77.692,187.027 72.85,186.463 
	62.667,187.027 56.792,187.896 52.474,190.766 53.369,191.068 57.459,188.428 62.667,187.896 72.922,187.027 84.85,188.766 
	93.378,188.102 94.962,188.102 96.925,189.861 96.321,189.559 94.736,188.766 84.925,189.484 72.85,187.896 62.667,188.428 
	57.832,188.766 53.832,191.4 54.738,191.898 58.292,189.484 72.85,188.578 85,190.398 94.51,189.559 95.944,190.088 80.274,190.4 
	72.85,189.18 58.292,190.088 55.643,191.898 58.586,190.4 72.922,189.861 76.789,190.4 59.73,191.068 56.322,192.402 "/>
<polyline fill="none" stroke="#FFFFFF" stroke-linecap="round" stroke-linejoin="round" stroke-miterlimit="10" points="
	78.376,169.487 75.299,172.987 67.292,171.778 61.876,170.237 57.876,168.065 52.959,167.321 46.042,168.065 40.209,170.153 
	27.042,174.903 26.514,175.153 26.126,172.474 27.042,174.071 45.542,167.321 52.474,166.487 58.709,167.571 62.959,169.737 
	75.071,172.474 75.876,171.632 77.692,169.653 71.905,170.153 62.376,168.862 75.071,171.778 76.24,170.321 72.935,170.821 
	74.792,170.821 "/>
<polyline fill="none" stroke="#FFFFFF" stroke-linecap="round" stroke-linejoin="round" stroke-miterlimit="10" points="
	57.792,166.903 52.474,165.737 45.542,166.487 27.376,173.153 26.514,171.778 35.709,168.065 44.292,166.487 27.792,172.474 
	27.626,171.778 38.376,168.065 "/>
<polyline fill="none" stroke="#FFFFFF" stroke-linecap="round" stroke-linejoin="round" stroke-miterlimit="10" points="
	24.792,150.737 24.459,154.216 30.126,150.294 35.709,148.153 40.459,146.903 46.924,146.903 51.709,146.903 67.292,144.282 
	67.292,142.32 60.959,142.32 57.126,143.629 52.251,145.32 47.876,145.911 41.042,145.32 32.709,146.57 28.626,148.269 
	25.709,150.294 25.279,153.06 29.709,149.576 35.542,147.278 40.959,145.911 52.251,145.911 57.792,145.153 66.792,143.629 
	66.792,142.903 61.292,142.986 54.792,144.812 64.837,143.367 "/>
<polyline fill="none" stroke="#FFFFFF" stroke-linecap="round" stroke-linejoin="round" stroke-miterlimit="10" points="
	36.292,146.486 32.792,147.278 29.209,148.854 26.126,151.403 26.514,150.294 "/>
<path fill="none" stroke="#FFFFFF" stroke-linecap="round" stroke-linejoin="round" stroke-miterlimit="10" d="M223.665,202.777
	c0,0,1.693-3.164,2.693-3.963"/>
<path fill="none" stroke="#FFFFFF" stroke-linecap="round" stroke-linejoin="round" stroke-miterlimit="10" d="M233.881,194.754
	c0,0,6.109-2.951,8.822-3.305"/>
<path fill="none" stroke="#FFFFFF" stroke-linecap="round" stroke-linejoin="round" stroke-miterlimit="10" d="M58.915,121.236
	v2.667c0,0-3.795,1.911-6.561,2.388s-6.965,0.22-7.792,0.349s-9.703,0.696-13.562,1.506s-9.713,2.739-10.935,3.704
	s-1.865,1.747-1.865,1.747l-1.351-2.568l3.345-1.75c0,0,4.953-3.153,6.818-3.475s9.391-0.525,9.391-0.525l10.42-0.44
	c0,0,9.134-1.218,10.292-1.928s1.178-0.388,1.178-0.388v0.908l-6.131,2.373l-7.718,0.193l-13.379,1.508l-10.677,3.524l-1.902,1.593
	l-0.736-1.593l9.198-4.737l12.671-0.359l11.257-0.653l5.66-1.848"/>
<polyline fill="none" stroke="#FFFFFF" stroke-linecap="round" stroke-linejoin="round" stroke-miterlimit="10" points="
	18.778,131.463 21.029,129.92 26.882,126.988 34.666,126.575 22.444,129.791 27.076,127.504 29.648,127.417 "/>
<polygon fill="none" stroke="#FFFFFF" stroke-linecap="round" stroke-linejoin="round" stroke-miterlimit="10" points="
	70.816,102.583 68.564,106.122 61.36,105.735 54.478,106.381 49.46,107.987 43.8,109.53 33.637,109.917 29.264,110.174 
	25.147,111.672 20.773,113.967 13.762,121.554 14.083,120.204 14.469,116.542 17.428,114.226 20.194,111.672 24.697,109.595 
	28.813,108.501 34.667,107.537 41.228,107.344 45.344,106.381 51.069,104.341 55.636,103.484 66.506,102.841 "/>
<polyline fill="none" stroke="#FFFFFF" stroke-linecap="round" stroke-linejoin="round" stroke-miterlimit="10" points="
	69.658,103.355 68.114,105.542 61.36,104.848 54.799,105.542 47.402,107.987 40.841,109.014 29.714,109.402 22.96,111.993 
	19.036,114.676 14.792,119.243 14.792,116.863 15.434,117.571 15.627,116.12 15.991,117.056 16.271,115.941 17.364,115.448 
	18.2,114.354 19.101,113.519 20.258,112.618 21.159,112.068 22.317,111.299 25.275,110.174 30.421,108.694 33.766,108.373 
	37.142,108.244 40.648,108.18 42.9,107.729 45.73,107.279 51.133,104.848 58.915,103.882 68.757,103.355 67.801,104.848 
	62.068,104.333 54.349,104.848 50.425,105.8 46.373,107.472 52.484,105.864 "/>
<line fill="none" stroke="#FFFFFF" stroke-linecap="round" stroke-linejoin="round" stroke-miterlimit="10" x1="64.705" y1="103.882" x2="67.801" y2="104.333"/>
<polyline fill="none" stroke="#FFFFFF" stroke-linecap="round" stroke-linejoin="round" stroke-miterlimit="10" points="
	79.729,89.269 59.361,88.818 46.888,88.818 31.451,89.269 25.34,89.912 20.258,91.648 16.656,93.673 13.762,96.215 11.896,98.402 
	10.076,101.156 10.076,102.583 11.639,100.203 14.405,96.792 17.106,94.092 21.545,91.97 26.047,90.35 31.129,89.912 39.555,89.719 
	51.326,89.59 60.46,89.59 69.055,89.59 79.729,89.976 79.371,90.684 58.659,90.04 "/>
<polyline fill="none" stroke="#FFFFFF" stroke-linecap="round" stroke-linejoin="round" stroke-miterlimit="10" points="
	28.877,90.35 24.053,92.45 17.235,95.701 12.732,99.753 17.493,94.579 26.562,90.684 "/>
<polyline fill="none" stroke="#FFFFFF" stroke-linecap="round" stroke-linejoin="round" stroke-miterlimit="10" points="
	199.008,94.094 200.417,96.153 207.243,95.124 216.247,95.124 226.668,96.796 233.165,99.948 239.018,104.114 240.592,106.589 
	241.266,105.543 239.209,103.55 233.42,99.176 226.924,96.153 216.375,94.416 206.92,94.48 200.745,95.51 199.973,94.673 
	207.885,93.58 216.504,93.58 227.247,95.51 233.872,98.661 241.59,104.739 241.848,104.114 234.194,97.954 227.44,95.059 
	216.762,92.744 208.143,92.744 199.542,94.094 "/>
<polyline fill="none" stroke="#FFFFFF" stroke-linecap="round" stroke-linejoin="round" stroke-miterlimit="10" points="
	242.491,103.283 236.42,98.468 242.168,103.807 "/>
<path fill="none" stroke="#FFFFFF" stroke-linecap="round" stroke-linejoin="round" stroke-miterlimit="10" d="M239.834,120.204
	l-15.74-9.321l-3.865-1.479h-4.812l-6.709-0.708l-14.717-2.107v-0.659l14.926,2.174l6.5,0.399c0,0,4.678,0.064,4.812,0.064
	s4.314,1.773,4.314,1.773l15.291,8.904l-0.379-1.19l-14.395-8.348l-4.633-1.603l-5.404-0.373l-6.316-0.345l-9.166-1.456"/>
<path fill="none" stroke="#FFFFFF" stroke-linecap="round" stroke-linejoin="round" stroke-miterlimit="10" d="M234.772,114.47
	c0,0-10.082-5.722-11.965-6.366"/>
<path fill="none" stroke="#FFFFFF" stroke-linecap="round" stroke-linejoin="round" stroke-miterlimit="10" d="M243.852,129.996
	c0,0-9.672-3.548-11.916-3.548c-2.246,0-12.473,0-12.473,0l-12.736-0.322l2.766,3.152h21.484l13.508,3.602l-0.633-2.315
	l-11.916-3.553h-23.602l1.416,1.687l21.547-0.128l12.555,3.451l-0.396-0.942l-11.834-3.345h-21.549"/>
<polyline fill="none" stroke="#FFFFFF" stroke-linecap="round" stroke-linejoin="round" stroke-miterlimit="10" points="
	247.25,150.294 239.661,146.389 234.836,145.424 215.862,145.424 213.997,147.528 214.704,148.769 215.417,147.858 232.778,146.774 
	235.737,146.968 239.79,148.64 247.508,151.854 247.508,150.956 236.315,146.26 233.227,146.066 214.768,147.357 216.311,146.066 
	227.76,145.874 216.569,146.581 "/>
<line fill="none" stroke="#FFFFFF" stroke-linecap="round" stroke-linejoin="round" stroke-miterlimit="10" x1="241.266" y1="147.604" x2="238.567" y2="146.646"/>
<path fill="none" stroke="#FFFFFF" stroke-linecap="round" stroke-linejoin="round" stroke-miterlimit="10" d="M224.875,165.622
	l1.6,2.572l13.441-1.287l4.311,0.93l6.564,4.656l0.77,3.164c0,0,0.643,1.479,0.771,1.672c0.129,0.191,0.643,0.514,0.643,0.514
	v-1.672l-0.707-0.514l0.707-0.516l-0.9-0.457l0.9-0.508l-1.223-0.451l0.645-0.578h-0.836l0.643-0.674l-0.9-0.484l0.578-0.578
	l-1.35-3.152l0.26,3.217l-6.371-4.439l-4.504-1.143l-13.121,1.4l-0.85-0.965l13.971-1.33l4.826,1.459l5.338,3.697l-0.281-1.383
	l-4.672-2.879l-5.211-1.494l-14.342,1.494"/>
<polyline fill="none" stroke="#FFFFFF" stroke-linecap="round" stroke-linejoin="round" stroke-miterlimit="10" points="
	249.18,186.258 246.028,182.795 243.649,182.537 233.881,183.111 233.485,182.537 244.292,181.959 246.415,182.281 249.18,185.367 
	246.864,181.637 243.649,181.252 233.485,181.895 232.971,181.252 241.526,180.865 247.549,181.205 249.18,184.338 "/>
</svg>
